<svg width="669" height="450" viewBox="0 0 669 450" fill="none" xmlns="http://www.w3.org/2000/svg">
<g clip-path="url(#clip0_1964_8788)">
<path d="M367.426 45.7279C364.156 42.4575 358.978 42.239 355.447 45.0625L353.991 43.6066L352.577 45.0208L354.033 46.4767C351.209 50.0073 351.428 55.1855 354.698 58.4558L356.112 59.87L368.84 47.1421L367.426 45.7279ZM356.112 61.2843L370.255 47.1421L371.669 48.5563L357.527 62.6985L356.112 61.2843Z" fill="#FDEAD7" fill-opacity="0.6"/>
</g>
<g clip-path="url(#clip1_1964_8788)">
<path d="M25.4554 239.728C22.185 236.458 17.0069 236.239 13.4763 239.063L12.0204 237.607L10.6061 239.021L12.0621 240.477C9.2386 244.007 9.4571 249.185 12.7275 252.456L14.1417 253.87L26.8696 241.142L25.4554 239.728ZM14.1417 255.284L28.2838 241.142L29.698 242.556L15.5559 256.698L14.1417 255.284Z" fill="#FDEAD7" fill-opacity="0.6"/>
</g>
<g clip-path="url(#clip2_1964_8788)">
<path d="M630.455 68.7279C627.185 65.4575 622.007 65.239 618.476 68.0625L617.02 66.6066L615.606 68.0208L617.062 69.4767C614.239 73.0073 614.457 78.1855 617.727 81.4558L619.142 82.87L631.87 70.1421L630.455 68.7279ZM619.142 84.2843L633.284 70.1421L634.698 71.5563L620.556 85.6985L619.142 84.2843Z" fill="#FDEAD7" fill-opacity="0.6"/>
</g>
<g clip-path="url(#clip3_1964_8788)">
<path d="M53.3095 407.328C53.448 407.944 53.7295 408.519 54.1311 409.007C54.6954 409.641 55.3785 410.141 56.1973 410.216C57.0529 410.293 57.7671 409.885 58.3229 409.329C58.8928 408.759 59.276 408.028 59.1968 407.182C59.1191 406.366 58.6326 405.679 57.9962 405.124C57.5106 404.736 56.9435 404.463 56.3373 404.325C55.6698 404.173 54.66 404.139 53.8964 404.902C53.1412 405.658 53.1567 406.652 53.3095 407.328ZM56.0205 414.092C55.4579 414.655 55.1418 415.418 55.1418 416.213C55.1418 417.009 55.4579 417.772 56.0205 418.335L56.029 418.343L60.7284 417.762C60.8349 417.748 60.9342 417.701 61.0117 417.627C61.0891 417.552 61.1405 417.455 61.1584 417.349L61.6109 414.662C61.6971 414.149 61.941 413.676 62.3085 413.309C62.676 412.941 63.149 412.698 63.6615 412.611L66.3485 412.159C66.4544 412.141 66.5517 412.09 66.6261 412.012C66.7004 411.935 66.7479 411.835 66.7615 411.729L67.3427 407.029L67.3342 407.021C66.7716 406.458 66.0085 406.142 65.2129 406.142C64.4173 406.142 63.6542 406.458 63.0916 407.021L56.0205 414.092ZM68.747 411.972L69.1359 408.823L72.284 411.971L72.9911 411.264C73.1786 411.076 73.433 410.971 73.6982 410.971C73.9634 410.971 74.2178 411.076 74.4053 411.264C74.5928 411.451 74.6982 411.705 74.6982 411.971C74.6982 412.236 74.5928 412.49 74.4053 412.678L61.6774 425.406C61.4898 425.593 61.2355 425.699 60.9703 425.699C60.705 425.699 60.4507 425.593 60.2632 425.406C60.0756 425.218 59.9703 424.964 59.9703 424.699C59.9703 424.433 60.0756 424.179 60.2632 423.992L60.9703 423.284L57.8222 420.136L60.9717 419.747C61.5066 419.682 62.006 419.445 62.3954 419.072C62.7848 418.7 63.0434 418.211 63.1326 417.68L63.5837 414.994C63.601 414.892 63.6497 414.797 63.7232 414.724C63.7968 414.65 63.8913 414.601 63.9938 414.584L66.6809 414.132C67.2119 414.042 67.6999 413.784 68.0722 413.395C68.4445 413.006 68.6811 412.507 68.747 411.972Z" fill="#FDEAD7" fill-opacity="0.6"/>
</g>
<g clip-path="url(#clip4_1964_8788)">
<path d="M500.455 32.7279C497.185 29.4575 492.007 29.239 488.476 32.0625L487.02 30.6066L485.606 32.0208L487.062 33.4767C484.239 37.0073 484.457 42.1855 487.727 45.4558L489.142 46.87L501.87 34.1421L500.455 32.7279ZM489.142 48.2843L503.284 34.1421L504.698 35.5563L490.556 49.6985L489.142 48.2843Z" fill="#FDEAD7" fill-opacity="0.6"/>
</g>
<g clip-path="url(#clip5_1964_8788)">
<path d="M560.455 302.728C557.185 299.458 552.007 299.239 548.476 302.063L547.02 300.607L545.606 302.021L547.062 303.477C544.239 307.007 544.457 312.185 547.727 315.456L549.142 316.87L561.87 304.142L560.455 302.728ZM549.142 318.284L563.284 304.142L564.698 305.556L550.556 319.698L549.142 318.284Z" fill="#FDEAD7" fill-opacity="0.6"/>
</g>
<g clip-path="url(#clip6_1964_8788)">
<path d="M532.476 69.3948C532.624 70.0241 532.879 70.3635 533.169 70.6534C533.713 71.1979 535.728 71.799 536.435 72.5061C537.107 73.1778 537.213 73.8496 537.213 73.8496L536.153 74.9102C536.153 74.9102 536.046 74.2385 535.375 73.5667C534.668 72.8596 532.652 72.2586 532.108 71.7141C531.818 71.4242 531.563 71.0848 531.415 70.4555L532.476 69.3948ZM536.011 65.8593C536.16 66.4886 536.414 66.828 536.704 67.1179C537.249 67.6624 539.264 68.2634 539.971 68.9705C540.643 69.6423 540.749 70.314 540.749 70.314L541.809 69.2534C541.809 69.2534 541.703 68.5816 541.032 67.9099C540.324 67.2028 538.309 66.6017 537.765 66.0572C537.475 65.7673 537.22 65.4279 537.072 64.7986L536.011 65.8593ZM533.713 68.1574C533.862 68.7867 534.116 69.1261 534.406 69.416C534.95 69.9605 536.973 70.5686 537.673 71.2686C538.345 71.9404 538.451 72.6121 538.451 72.6121L539.511 71.5515C539.511 71.5515 539.405 70.8797 538.733 70.208C538.026 69.5009 536.011 68.8998 535.467 68.3553C535.177 68.0654 534.922 67.726 534.774 67.0967L533.713 68.1574ZM542.778 58.3851C542.778 58.3851 542.121 57.5437 541.809 57.2326C540.643 56.0658 538.733 56.0658 537.567 57.2326C536.478 58.3215 536.4 60.0398 537.333 61.2136L543.881 69.3029L535.679 77.5053C538.401 80.256 542.813 80.2701 545.451 77.6326C547.912 75.1719 548.004 71.2191 545.79 68.4826L538.917 59.9832C538.592 59.5872 538.613 59.0145 538.981 58.6468C539.37 58.2579 540.006 58.2579 540.395 58.6468C540.607 58.8589 541.208 59.6014 541.208 59.6014L542.778 58.3851Z" fill="#FDEAD7" fill-opacity="0.6"/>
</g>
<g clip-path="url(#clip7_1964_8788)">
<path d="M345.476 426.395C345.624 427.024 345.879 427.364 346.169 427.653C346.713 428.198 348.728 428.799 349.435 429.506C350.107 430.178 350.213 430.85 350.213 430.85L349.153 431.91C349.153 431.91 349.046 431.238 348.375 430.567C347.668 429.86 345.652 429.259 345.108 428.714C344.818 428.424 344.563 428.085 344.415 427.455L345.476 426.395ZM349.011 422.859C349.16 423.489 349.414 423.828 349.704 424.118C350.249 424.662 352.264 425.263 352.971 425.971C353.643 426.642 353.749 427.314 353.749 427.314L354.809 426.253C354.809 426.253 354.703 425.582 354.032 424.91C353.324 424.203 351.309 423.602 350.765 423.057C350.475 422.767 350.22 422.428 350.072 421.799L349.011 422.859ZM346.713 425.157C346.862 425.787 347.116 426.126 347.406 426.416C347.95 426.96 349.973 427.569 350.673 428.269C351.345 428.94 351.451 429.612 351.451 429.612L352.511 428.551C352.511 428.551 352.405 427.88 351.733 427.208C351.026 426.501 349.011 425.9 348.467 425.355C348.177 425.065 347.922 424.726 347.774 424.097L346.713 425.157ZM355.778 415.385C355.778 415.385 355.121 414.544 354.809 414.233C353.643 413.066 351.733 413.066 350.567 414.233C349.478 415.322 349.4 417.04 350.333 418.214L356.881 426.303L348.679 434.505C351.401 437.256 355.813 437.27 358.451 434.633C360.912 432.172 361.004 428.219 358.79 425.483L351.917 416.983C351.592 416.587 351.613 416.014 351.981 415.647C352.37 415.258 353.006 415.258 353.395 415.647C353.607 415.859 354.208 416.601 354.208 416.601L355.778 415.385Z" fill="#FDEAD7" fill-opacity="0.6"/>
</g>
<g clip-path="url(#clip8_1964_8788)">
<path d="M269.476 33.3948C269.624 34.0241 269.879 34.3635 270.169 34.6534C270.713 35.1979 272.728 35.799 273.435 36.5061C274.107 37.1778 274.213 37.8496 274.213 37.8496L273.153 38.9102C273.153 38.9102 273.046 38.2385 272.375 37.5667C271.668 36.8596 269.652 36.2586 269.108 35.7141C268.818 35.4242 268.563 35.0848 268.415 34.4555L269.476 33.3948ZM273.011 29.8593C273.16 30.4886 273.414 30.828 273.704 31.1179C274.249 31.6624 276.264 32.2634 276.971 32.9705C277.643 33.6423 277.749 34.314 277.749 34.314L278.809 33.2534C278.809 33.2534 278.703 32.5816 278.032 31.9099C277.324 31.2028 275.309 30.6017 274.765 30.0572C274.475 29.7673 274.22 29.4279 274.072 28.7986L273.011 29.8593ZM270.713 32.1574C270.862 32.7867 271.116 33.1261 271.406 33.416C271.95 33.9605 273.973 34.5686 274.673 35.2686C275.345 35.9404 275.451 36.6121 275.451 36.6121L276.511 35.5515C276.511 35.5515 276.405 34.8797 275.733 34.208C275.026 33.5009 273.011 32.8998 272.467 32.3553C272.177 32.0654 271.922 31.726 271.774 31.0967L270.713 32.1574ZM279.778 22.3851C279.778 22.3851 279.121 21.5437 278.809 21.2326C277.643 20.0658 275.733 20.0658 274.567 21.2326C273.478 22.3215 273.4 24.0398 274.333 25.2136L280.881 33.3029L272.679 41.5053C275.401 44.256 279.813 44.2701 282.451 41.6326C284.912 39.1719 285.004 35.2191 282.79 32.4826L275.917 23.9832C275.592 23.5872 275.613 23.0145 275.981 22.6468C276.37 22.2579 277.006 22.2579 277.395 22.6468C277.607 22.8589 278.208 23.6014 278.208 23.6014L279.778 22.3851Z" fill="#FDEAD7" fill-opacity="0.6"/>
</g>
<g clip-path="url(#clip9_1964_8788)">
<path d="M570.476 366.395C570.624 367.024 570.879 367.364 571.169 367.653C571.713 368.198 573.728 368.799 574.435 369.506C575.107 370.178 575.213 370.85 575.213 370.85L574.153 371.91C574.153 371.91 574.046 371.238 573.375 370.567C572.668 369.86 570.652 369.259 570.108 368.714C569.818 368.424 569.563 368.085 569.415 367.455L570.476 366.395ZM574.011 362.859C574.16 363.489 574.414 363.828 574.704 364.118C575.249 364.662 577.264 365.263 577.971 365.971C578.643 366.642 578.749 367.314 578.749 367.314L579.809 366.253C579.809 366.253 579.703 365.582 579.032 364.91C578.324 364.203 576.309 363.602 575.765 363.057C575.475 362.767 575.22 362.428 575.072 361.799L574.011 362.859ZM571.713 365.157C571.862 365.787 572.116 366.126 572.406 366.416C572.95 366.96 574.973 367.569 575.673 368.269C576.345 368.94 576.451 369.612 576.451 369.612L577.511 368.551C577.511 368.551 577.405 367.88 576.733 367.208C576.026 366.501 574.011 365.9 573.467 365.355C573.177 365.065 572.922 364.726 572.774 364.097L571.713 365.157ZM580.778 355.385C580.778 355.385 580.121 354.544 579.809 354.233C578.643 353.066 576.733 353.066 575.567 354.233C574.478 355.322 574.4 357.04 575.333 358.214L581.881 366.303L573.679 374.505C576.401 377.256 580.813 377.27 583.451 374.633C585.912 372.172 586.004 368.219 583.79 365.483L576.917 356.983C576.592 356.587 576.613 356.014 576.981 355.647C577.37 355.258 578.006 355.258 578.395 355.647C578.607 355.859 579.208 356.601 579.208 356.601L580.778 355.385Z" fill="#FDEAD7" fill-opacity="0.6"/>
</g>
<g clip-path="url(#clip10_1964_8788)">
<path fill-rule="evenodd" clip-rule="evenodd" d="M231.264 362.37C231.064 362.303 230.885 362.186 230.743 362.031C230.601 361.875 230.501 361.686 230.452 361.481C230.404 361.276 230.408 361.062 230.466 360.859C230.523 360.657 230.631 360.472 230.78 360.323L245.713 345.39C245.994 345.109 246.376 344.951 246.773 344.951C247.171 344.951 247.552 345.109 247.833 345.39L249.248 346.805C249.529 347.086 249.687 347.467 249.687 347.865C249.687 348.262 249.529 348.644 249.248 348.925L244.652 353.522L246.58 355.45C246.703 355.573 246.799 355.72 246.862 355.882C246.924 356.044 246.953 356.217 246.945 356.39C246.937 356.564 246.893 356.734 246.816 356.889C246.738 357.045 246.63 357.183 246.496 357.294L243.08 360.14C241.464 361.487 239.53 362.399 237.462 362.789C235.394 363.18 233.261 363.035 231.264 362.37Z" fill="#FDEAD7" fill-opacity="0.6"/>
</g>
<g clip-path="url(#clip11_1964_8788)">
<path fill-rule="evenodd" clip-rule="evenodd" d="M142.294 57.3699C142.094 57.3031 141.914 57.1865 141.772 57.031C141.63 56.8754 141.53 56.6862 141.481 56.4811C141.433 56.2761 141.438 56.0621 141.495 55.8594C141.552 55.6567 141.661 55.472 141.81 55.3229L156.743 40.3899C157.024 40.109 157.405 39.9512 157.803 39.9512C158.2 39.9512 158.581 40.109 158.863 40.3899L160.278 41.8049C160.558 42.0861 160.716 42.4674 160.716 42.8649C160.716 43.2624 160.558 43.6436 160.278 43.9249L155.682 48.5219L157.61 50.4499C157.732 50.5727 157.828 50.7198 157.891 50.8817C157.954 51.0436 157.982 51.2169 157.974 51.3904C157.966 51.5639 157.922 51.7338 157.845 51.8894C157.768 52.0449 157.659 52.1827 157.526 52.2939L154.11 55.1399C152.493 56.4871 150.559 57.3991 148.491 57.7893C146.423 58.1796 144.29 58.0352 142.294 57.3699Z" fill="#FDEAD7" fill-opacity="0.6"/>
</g>
<g clip-path="url(#clip12_1964_8788)">
<path fill-rule="evenodd" clip-rule="evenodd" d="M517.485 238.628C516.977 238.119 516.584 237.507 516.334 236.833C516.083 236.159 515.981 235.439 516.034 234.722C516.087 234.005 516.294 233.308 516.641 232.679C516.988 232.049 517.467 231.501 518.045 231.074C517.629 230.23 517.487 229.277 517.641 228.349C517.794 227.421 518.234 226.564 518.899 225.899C519.564 225.234 520.421 224.794 521.349 224.641C522.277 224.487 523.23 224.629 524.074 225.045C524.794 224.068 525.846 223.388 527.031 223.129C528.217 222.871 529.456 223.053 530.518 223.641C531.58 224.228 532.391 225.182 532.802 226.325C533.212 227.467 533.193 228.719 532.748 229.848L535.163 232.264C536.497 233.597 537.163 234.263 537.163 235.092C537.163 235.921 536.497 236.587 535.163 237.92L530.92 242.163C529.587 243.497 528.921 244.163 528.092 244.163C527.263 244.163 526.597 243.497 525.264 242.163L522.848 239.748C521.942 240.103 520.952 240.186 520 239.987C519.047 239.788 518.173 239.316 517.485 238.628ZM527.562 238.804C527.421 238.945 527.342 239.136 527.342 239.335C527.342 239.534 527.421 239.724 527.562 239.865C527.702 240.006 527.893 240.085 528.092 240.085C528.291 240.085 528.482 240.006 528.622 239.865L532.865 235.622C533.006 235.482 533.085 235.291 533.085 235.092C533.085 234.893 533.006 234.702 532.865 234.562C532.724 234.421 532.534 234.342 532.335 234.342C532.136 234.342 531.945 234.421 531.804 234.562L527.562 238.804Z" fill="#FDEAD7" fill-opacity="0.6"/>
</g>
<g clip-path="url(#clip13_1964_8788)">
<path d="M656.773 425.045L656.218 425.6C654.637 424.284 652.621 423.608 650.565 423.702C648.51 423.796 646.565 424.655 645.11 426.11C643.655 427.564 642.797 429.51 642.702 431.565C642.608 433.62 643.285 435.636 644.6 437.218L644.045 437.773C643.905 437.913 643.826 438.104 643.826 438.303C643.826 438.502 643.905 438.693 644.045 438.833C645.309 440.092 646.893 440.982 648.625 441.406C650.358 441.83 652.173 441.772 653.875 441.239L654.122 441.485C654.403 441.766 654.785 441.924 655.182 441.924C655.58 441.924 655.962 441.766 656.243 441.485L660.486 437.242C660.767 436.961 660.925 436.58 660.925 436.182C660.925 435.784 660.767 435.402 660.486 435.121L660.239 434.875C660.772 433.173 660.83 431.357 660.406 429.625C659.982 427.892 659.093 426.308 657.834 425.045C657.693 424.904 657.503 424.825 657.304 424.825C657.105 424.825 656.914 424.904 656.773 425.045ZM650.258 425.227C650.479 425.205 650.7 425.194 650.922 425.193C650.007 427.101 649.861 429.288 650.514 431.301L648.559 433.257C647.961 431.996 647.767 430.582 648.003 429.207C648.24 427.832 648.895 426.564 649.879 425.575C650 425.454 650.128 425.339 650.258 425.227ZM651.743 430.075C651.421 428.467 651.697 426.798 652.519 425.379C653.481 425.608 654.38 426.048 655.152 426.666L651.743 430.075ZM646.167 427.166C646.593 426.741 647.073 426.375 647.597 426.077C646.845 427.324 646.436 428.748 646.41 430.204C646.384 431.66 646.742 433.097 647.448 434.37L645.667 436.151C644.632 434.854 644.111 433.221 644.204 431.563C644.296 429.906 644.995 428.341 646.167 427.166Z" fill="#FDEAD7" fill-opacity="0.6"/>
</g>
<g clip-path="url(#clip14_1964_8788)">
<path d="M196.773 265.045L196.218 265.6C194.637 264.284 192.621 263.608 190.565 263.702C188.51 263.796 186.565 264.655 185.11 266.11C183.655 267.564 182.797 269.51 182.702 271.565C182.608 273.62 183.285 275.636 184.6 277.218L184.045 277.773C183.905 277.913 183.826 278.104 183.826 278.303C183.826 278.502 183.905 278.693 184.045 278.833C185.309 280.092 186.893 280.982 188.625 281.406C190.358 281.83 192.173 281.772 193.875 281.239L194.122 281.485C194.403 281.766 194.785 281.924 195.182 281.924C195.58 281.924 195.962 281.766 196.243 281.485L200.486 277.242C200.767 276.961 200.925 276.58 200.925 276.182C200.925 275.784 200.767 275.402 200.486 275.121L200.239 274.875C200.772 273.173 200.83 271.357 200.406 269.625C199.982 267.892 199.093 266.308 197.834 265.045C197.693 264.904 197.503 264.825 197.304 264.825C197.105 264.825 196.914 264.904 196.773 265.045ZM190.258 265.227C190.479 265.205 190.7 265.194 190.922 265.193C190.007 267.101 189.861 269.288 190.514 271.301L188.559 273.257C187.961 271.996 187.767 270.582 188.003 269.207C188.24 267.832 188.895 266.564 189.879 265.575C190 265.454 190.128 265.339 190.258 265.227ZM191.743 270.075C191.421 268.467 191.697 266.798 192.519 265.379C193.481 265.608 194.38 266.048 195.152 266.666L191.743 270.075ZM186.167 267.166C186.593 266.741 187.073 266.375 187.597 266.077C186.845 267.324 186.436 268.748 186.41 270.204C186.384 271.66 186.742 273.097 187.448 274.37L185.667 276.151C184.632 274.854 184.111 273.221 184.204 271.563C184.296 269.906 184.995 268.341 186.167 267.166Z" fill="#FDEAD7" fill-opacity="0.6"/>
</g>
<g clip-path="url(#clip15_1964_8788)">
<path d="M422.891 379.182C423.191 379.483 423.359 379.889 423.359 380.314C423.359 380.738 423.191 381.145 422.891 381.445L410.445 393.89C410.145 394.19 409.738 394.359 409.314 394.359C408.89 394.359 408.483 394.19 408.183 393.89C407.883 393.59 407.714 393.183 407.714 392.759C407.714 392.335 407.883 391.928 408.183 391.628L420.628 379.182C420.928 378.882 421.335 378.714 421.759 378.714C422.184 378.714 422.591 378.882 422.891 379.182ZM413.274 393.325L411.577 395.022C412.477 395.922 413.698 396.428 414.971 396.428C416.244 396.428 417.465 395.922 418.365 395.022L424.022 389.365C424.922 388.465 425.428 387.244 425.428 385.971C425.428 384.698 424.922 383.477 424.022 382.577L413.274 393.325ZM408.183 389.365L407.051 390.496L404.789 388.233C404.189 387.633 403.851 386.819 403.851 385.971C403.851 385.122 404.189 384.308 404.789 383.708L412.708 375.788C413.308 375.188 414.122 374.851 414.971 374.851C415.82 374.851 416.634 375.188 417.234 375.788L419.496 378.051L408.183 389.365ZM415.537 378.617C415.687 378.767 415.89 378.851 416.102 378.851C416.315 378.851 416.518 378.767 416.668 378.617C416.818 378.467 416.902 378.263 416.902 378.051C416.902 377.839 416.818 377.635 416.668 377.485C416.518 377.335 416.315 377.251 416.102 377.251C415.89 377.251 415.687 377.335 415.537 377.485C415.387 377.635 415.302 377.839 415.302 378.051C415.302 378.263 415.387 378.467 415.537 378.617ZM412.143 379.748C412.293 379.898 412.496 379.982 412.708 379.982C412.92 379.982 413.124 379.898 413.274 379.748C413.424 379.598 413.508 379.395 413.508 379.182C413.508 378.97 413.424 378.767 413.274 378.617C413.124 378.467 412.92 378.382 412.708 378.382C412.496 378.382 412.293 378.467 412.143 378.617C411.993 378.767 411.908 378.97 411.908 379.182C411.908 379.395 411.993 379.598 412.143 379.748ZM411.011 383.142C411.161 383.292 411.365 383.377 411.577 383.377C411.789 383.377 411.993 383.292 412.143 383.142C412.293 382.992 412.377 382.789 412.377 382.577C412.377 382.364 412.293 382.161 412.143 382.011C411.993 381.861 411.789 381.777 411.577 381.777C411.365 381.777 411.161 381.861 411.011 382.011C410.861 382.161 410.777 382.364 410.777 382.577C410.777 382.789 410.861 382.992 411.011 383.142ZM407.617 384.274C407.767 384.424 407.971 384.508 408.183 384.508C408.395 384.508 408.598 384.424 408.748 384.274C408.898 384.124 408.983 383.92 408.983 383.708C408.983 383.496 408.898 383.292 408.748 383.142C408.598 382.992 408.395 382.908 408.183 382.908C407.971 382.908 407.767 382.992 407.617 383.142C407.467 383.292 407.383 383.496 407.383 383.708C407.383 383.92 407.467 384.124 407.617 384.274ZM406.486 387.668C406.636 387.818 406.839 387.902 407.051 387.902C407.264 387.902 407.467 387.818 407.617 387.668C407.767 387.518 407.851 387.314 407.851 387.102C407.851 386.89 407.767 386.686 407.617 386.536C407.467 386.386 407.264 386.302 407.051 386.302C406.839 386.302 406.636 386.386 406.486 386.536C406.336 386.686 406.251 386.89 406.251 387.102C406.251 387.314 406.336 387.518 406.486 387.668Z" fill="#FDEAD7" fill-opacity="0.6"/>
</g>
<g clip-path="url(#clip16_1964_8788)">
<path d="M112.891 349.182C113.191 349.483 113.359 349.889 113.359 350.314C113.359 350.738 113.191 351.145 112.891 351.445L100.445 363.89C100.145 364.19 99.7385 364.359 99.3141 364.359C98.8898 364.359 98.4828 364.19 98.1828 363.89C97.8827 363.59 97.7141 363.183 97.7141 362.759C97.7141 362.335 97.8827 361.928 98.1828 361.628L110.628 349.182C110.928 348.882 111.335 348.714 111.759 348.714C112.184 348.714 112.591 348.882 112.891 349.182ZM103.274 363.325L101.577 365.022C102.477 365.922 103.698 366.428 104.971 366.428C106.244 366.428 107.465 365.922 108.365 365.022L114.022 359.365C114.922 358.465 115.428 357.244 115.428 355.971C115.428 354.698 114.922 353.477 114.022 352.577L103.274 363.325ZM98.1828 359.365L97.0514 360.496L94.7886 358.233C94.1885 357.633 93.8514 356.819 93.8514 355.971C93.8514 355.122 94.1885 354.308 94.7886 353.708L102.708 345.788C103.308 345.188 104.122 344.851 104.971 344.851C105.82 344.851 106.634 345.188 107.234 345.788L109.496 348.051L98.1828 359.365ZM105.537 348.617C105.687 348.767 105.89 348.851 106.102 348.851C106.315 348.851 106.518 348.767 106.668 348.617C106.818 348.467 106.902 348.263 106.902 348.051C106.902 347.839 106.818 347.635 106.668 347.485C106.518 347.335 106.315 347.251 106.102 347.251C105.89 347.251 105.687 347.335 105.537 347.485C105.387 347.635 105.302 347.839 105.302 348.051C105.302 348.263 105.387 348.467 105.537 348.617ZM102.143 349.748C102.293 349.898 102.496 349.982 102.708 349.982C102.92 349.982 103.124 349.898 103.274 349.748C103.424 349.598 103.508 349.395 103.508 349.182C103.508 348.97 103.424 348.767 103.274 348.617C103.124 348.467 102.92 348.382 102.708 348.382C102.496 348.382 102.293 348.467 102.143 348.617C101.993 348.767 101.908 348.97 101.908 349.182C101.908 349.395 101.993 349.598 102.143 349.748ZM101.011 353.142C101.161 353.292 101.365 353.377 101.577 353.377C101.789 353.377 101.993 353.292 102.143 353.142C102.293 352.992 102.377 352.789 102.377 352.577C102.377 352.364 102.293 352.161 102.143 352.011C101.993 351.861 101.789 351.777 101.577 351.777C101.365 351.777 101.161 351.861 101.011 352.011C100.861 352.161 100.777 352.364 100.777 352.577C100.777 352.789 100.861 352.992 101.011 353.142ZM97.6171 354.274C97.7671 354.424 97.9706 354.508 98.1828 354.508C98.3949 354.508 98.5984 354.424 98.7484 354.274C98.8985 354.124 98.9828 353.92 98.9828 353.708C98.9828 353.496 98.8985 353.292 98.7484 353.142C98.5984 352.992 98.3949 352.908 98.1828 352.908C97.9706 352.908 97.7671 352.992 97.6171 353.142C97.467 353.292 97.3828 353.496 97.3828 353.708C97.3828 353.92 97.467 354.124 97.6171 354.274ZM96.4857 357.668C96.6357 357.818 96.8392 357.902 97.0514 357.902C97.2636 357.902 97.467 357.818 97.6171 357.668C97.7671 357.518 97.8514 357.314 97.8514 357.102C97.8514 356.89 97.7671 356.686 97.6171 356.536C97.467 356.386 97.2636 356.302 97.0514 356.302C96.8392 356.302 96.6357 356.386 96.4857 356.536C96.3357 356.686 96.2514 356.89 96.2514 357.102C96.2514 357.314 96.3357 357.518 96.4857 357.668Z" fill="#FDEAD7" fill-opacity="0.6"/>
</g>
<g clip-path="url(#clip17_1964_8788)">
<path d="M621.891 10.1825C622.191 10.4825 622.359 10.8895 622.359 11.3138C622.359 11.7382 622.191 12.1451 621.891 12.4452L609.445 24.8903C609.145 25.1903 608.738 25.3589 608.314 25.3589C607.89 25.3589 607.483 25.1903 607.183 24.8903C606.883 24.5902 606.714 24.1833 606.714 23.7589C606.714 23.3346 606.883 22.9276 607.183 22.6275L619.628 10.1825C619.928 9.8824 620.335 9.71383 620.759 9.71383C621.184 9.71383 621.591 9.8824 621.891 10.1825ZM612.274 24.3246L610.577 26.0216C611.477 26.9218 612.698 27.4275 613.971 27.4275C615.244 27.4275 616.465 26.9218 617.365 26.0216L623.022 20.3648C623.922 19.4646 624.428 18.2437 624.428 16.9707C624.428 15.6976 623.922 14.4767 623.022 13.5766L612.274 24.3246ZM607.183 20.3648L606.051 21.4962L603.789 19.2334C603.189 18.6333 602.851 17.8194 602.851 16.9707C602.851 16.122 603.189 15.3081 603.789 14.7079L611.708 6.78834C612.308 6.18823 613.122 5.85108 613.971 5.85109C614.82 5.85109 615.634 6.18823 616.234 6.78834L618.496 9.05109L607.183 20.3648ZM614.537 9.61677C614.687 9.7668 614.89 9.85109 615.102 9.85109C615.315 9.85109 615.518 9.7668 615.668 9.61677C615.818 9.46674 615.902 9.26326 615.902 9.05108C615.902 8.83891 615.818 8.63543 615.668 8.4854C615.518 8.33537 615.315 8.25108 615.102 8.25108C614.89 8.25108 614.687 8.33537 614.537 8.4854C614.387 8.63543 614.302 8.83891 614.302 9.05109C614.302 9.26326 614.387 9.46674 614.537 9.61677ZM611.143 10.7481C611.293 10.8982 611.496 10.9825 611.708 10.9825C611.92 10.9825 612.124 10.8982 612.274 10.7481C612.424 10.5981 612.508 10.3946 612.508 10.1825C612.508 9.97028 612.424 9.7668 612.274 9.61677C612.124 9.46674 611.92 9.38246 611.708 9.38245C611.496 9.38245 611.293 9.46674 611.143 9.61677C610.993 9.7668 610.908 9.97028 610.908 10.1825C610.908 10.3946 610.993 10.5981 611.143 10.7481ZM610.011 14.1423C610.161 14.2923 610.365 14.3766 610.577 14.3766C610.789 14.3766 610.993 14.2923 611.143 14.1423C611.293 13.9922 611.377 13.7887 611.377 13.5766C611.377 13.3644 611.293 13.1609 611.143 13.0109C610.993 12.8609 610.789 12.7766 610.577 12.7766C610.365 12.7766 610.161 12.8609 610.011 13.0109C609.861 13.1609 609.777 13.3644 609.777 13.5766C609.777 13.7887 609.861 13.9922 610.011 14.1423ZM606.617 15.2736C606.767 15.4237 606.971 15.5079 607.183 15.5079C607.395 15.5079 607.598 15.4237 607.748 15.2736C607.898 15.1236 607.983 14.9201 607.983 14.7079C607.983 14.4958 607.898 14.2923 607.748 14.1423C607.598 13.9922 607.395 13.9079 607.183 13.9079C606.971 13.9079 606.767 13.9922 606.617 14.1423C606.467 14.2923 606.383 14.4958 606.383 14.7079C606.383 14.9201 606.467 15.1236 606.617 15.2736ZM605.486 18.6677C605.636 18.8178 605.839 18.9021 606.051 18.9021C606.264 18.9021 606.467 18.8178 606.617 18.6677C606.767 18.5177 606.851 18.3142 606.851 18.1021C606.851 17.8899 606.767 17.6864 606.617 17.5364C606.467 17.3863 606.264 17.3021 606.051 17.3021C605.839 17.3021 605.636 17.3863 605.486 17.5364C605.336 17.6864 605.251 17.8899 605.251 18.1021C605.251 18.3142 605.336 18.5177 605.486 18.6677Z" fill="#FDEAD7" fill-opacity="0.6"/>
</g>
<g clip-path="url(#clip18_1964_8788)">
<path d="M464.309 415.328C464.448 415.944 464.729 416.519 465.131 417.007C465.695 417.641 466.378 418.141 467.197 418.216C468.053 418.293 468.767 417.885 469.323 417.329C469.893 416.759 470.276 416.028 470.197 415.182C470.119 414.366 469.633 413.679 468.996 413.124C468.511 412.736 467.943 412.463 467.337 412.325C466.67 412.173 465.66 412.139 464.896 412.902C464.141 413.658 464.157 414.652 464.309 415.328ZM467.021 422.092C466.458 422.655 466.142 423.418 466.142 424.213C466.142 425.009 466.458 425.772 467.021 426.335L467.029 426.343L471.728 425.762C471.835 425.748 471.934 425.701 472.012 425.627C472.089 425.552 472.141 425.455 472.158 425.349L472.611 422.662C472.697 422.149 472.941 421.676 473.308 421.309C473.676 420.941 474.149 420.698 474.662 420.611L477.349 420.159C477.454 420.141 477.552 420.09 477.626 420.012C477.7 419.935 477.748 419.835 477.761 419.729L478.343 415.029L478.334 415.021C477.772 414.458 477.009 414.142 476.213 414.142C475.417 414.142 474.654 414.458 474.092 415.021L467.021 422.092ZM479.747 419.972L480.136 416.823L483.284 419.971L483.991 419.264C484.179 419.076 484.433 418.971 484.698 418.971C484.963 418.971 485.218 419.076 485.405 419.264C485.593 419.451 485.698 419.705 485.698 419.971C485.698 420.236 485.593 420.49 485.405 420.678L472.677 433.406C472.49 433.593 472.235 433.699 471.97 433.699C471.705 433.699 471.451 433.593 471.263 433.406C471.076 433.218 470.97 432.964 470.97 432.699C470.97 432.433 471.076 432.179 471.263 431.992L471.97 431.284L468.822 428.136L471.972 427.747C472.507 427.682 473.006 427.445 473.395 427.072C473.785 426.7 474.043 426.211 474.133 425.68L474.584 422.994C474.601 422.892 474.65 422.797 474.723 422.724C474.797 422.65 474.891 422.601 474.994 422.584L477.681 422.132C478.212 422.042 478.7 421.784 479.072 421.395C479.444 421.006 479.681 420.507 479.747 419.972Z" fill="#FDEAD7" fill-opacity="0.6"/>
</g>
<path d="M624.5 182.75C624.5 182.551 624.421 182.36 624.28 182.22C624.14 182.079 623.949 182 623.75 182C623.551 182 623.36 182.079 623.22 182.22C623.079 182.36 623 182.551 623 182.75V186.765C620.974 185.407 618.133 185.884 616.707 187.98L609.353 198.786C608.797 199.604 608.903 200.696 609.608 201.394C609.956 201.737 610.413 201.947 610.9 201.989C611.387 202.031 611.873 201.902 612.275 201.624L623.065 194.155C624.032 193.491 624.698 192.472 624.918 191.319C625.138 190.167 624.894 188.974 624.24 188H628.249C628.448 188 628.639 187.921 628.779 187.78C628.92 187.64 628.999 187.449 628.999 187.25C628.999 187.051 628.92 186.86 628.779 186.72C628.639 186.579 628.448 186.5 628.249 186.5H625.559L628.779 183.28C628.912 183.138 628.984 182.95 628.98 182.755C628.977 182.561 628.898 182.376 628.761 182.238C628.623 182.101 628.438 182.022 628.244 182.019C628.049 182.015 627.861 182.088 627.719 182.22L624.5 185.439V182.75Z" fill="#FDEAD7"/>
<path d="M101.5 15.75C101.5 15.5511 101.421 15.3603 101.28 15.2197C101.14 15.079 100.949 15 100.75 15C100.551 15 100.36 15.079 100.22 15.2197C100.079 15.3603 100 15.5511 100 15.75V19.765C97.9741 18.407 95.1331 18.884 93.7071 20.98L86.3531 31.786C85.7971 32.604 85.9031 33.696 86.6081 34.394C86.9564 34.7366 87.4134 34.947 87.9002 34.989C88.387 35.031 88.8732 34.9019 89.2751 34.624L100.065 27.155C101.032 26.4906 101.698 25.4715 101.918 24.3191C102.138 23.1666 101.894 21.9739 101.24 21H105.249C105.448 21 105.639 20.921 105.779 20.7803C105.92 20.6397 105.999 20.4489 105.999 20.25C105.999 20.0511 105.92 19.8603 105.779 19.7197C105.639 19.579 105.448 19.5 105.249 19.5H102.559L105.779 16.28C105.912 16.1378 105.984 15.9498 105.98 15.7555C105.977 15.5612 105.898 15.3758 105.761 15.2384C105.623 15.101 105.438 15.0223 105.244 15.0188C105.049 15.0154 104.861 15.0875 104.719 15.22L101.5 18.439V15.75Z" fill="#FDEAD7" fill-opacity="0.6"/>
<path d="M425.103 61.6429C426.104 62.6439 427.438 63.2229 428.776 63.5549C430.12 63.8879 431.523 63.9859 432.726 63.9849C432.811 63.9859 432.893 64.0201 432.953 64.0803C433.013 64.1404 433.048 64.2217 433.049 64.3069C433.056 66.0779 433.269 68.3229 434.136 70.1389C434.462 70.8209 435.134 71.1059 435.771 70.9649C436.367 70.8319 436.856 70.3499 437.015 69.6979C437.209 68.9029 437.46 67.9809 437.745 67.1789C437.887 66.7779 438.033 66.4189 438.179 66.1269C438.331 65.8249 438.459 65.6399 438.551 65.5489C438.641 65.4579 438.826 65.3289 439.128 65.1779C439.42 65.0319 439.778 64.8859 440.179 64.7439C440.98 64.4599 441.902 64.2099 442.696 64.0159C443.348 63.8569 443.831 63.3679 443.963 62.7709C444.105 62.1339 443.82 61.4619 443.138 61.1359C441.325 60.2689 439.084 60.0559 437.315 60.0459C437.141 60.0459 436.994 59.8989 436.994 59.7229C436.994 58.5209 436.896 57.1169 436.563 55.7729C436.23 54.4329 435.651 53.0989 434.649 52.0969C433.529 50.9769 432.04 50.4289 430.593 50.1799C429.142 49.9299 427.667 49.9709 426.501 50.0849C425.624 50.1655 424.803 50.5507 424.18 51.1735C423.557 51.7964 423.172 52.6177 423.091 53.4949C422.978 54.6609 422.937 56.1349 423.186 57.5869C423.436 59.0339 423.984 60.5229 425.103 61.6429ZM426 55.9999C426 55.7346 426.105 55.4803 426.293 55.2928C426.48 55.1052 426.735 54.9999 427 54.9999C427.265 54.9999 427.52 55.1052 427.707 55.2928C427.895 55.4803 428 55.7346 428 55.9999C428 56.2651 427.895 56.5194 427.707 56.707C427.52 56.8945 427.265 56.9999 427 56.9999C426.735 56.9999 426.48 56.8945 426.293 56.707C426.105 56.5194 426 56.2651 426 55.9999Z" fill="#FDEAD7" fill-opacity="0.6"/>
<g clip-path="url(#clip19_1964_8788)">
<path fill-rule="evenodd" clip-rule="evenodd" d="M74.4854 214.657C73.977 214.149 73.5842 213.537 73.3337 212.863C73.0833 212.189 72.9811 211.469 73.0342 210.752C73.0873 210.035 73.2944 209.338 73.6413 208.708C73.9883 208.078 74.467 207.531 75.0448 207.103C74.6288 206.259 74.4875 205.306 74.6407 204.378C74.794 203.45 75.2341 202.594 75.8992 201.928C76.5643 201.263 77.4211 200.823 78.3491 200.67C79.2772 200.517 80.2299 200.658 81.0735 201.074C81.7944 200.098 82.8457 199.417 84.0315 199.159C85.2172 198.9 86.4565 199.082 87.5181 199.67C88.5798 200.258 89.3914 201.212 89.8016 202.354C90.2118 203.496 90.1926 204.748 89.7476 205.877L92.1631 208.293C93.4967 209.626 94.1628 210.293 94.1628 211.121C94.1628 211.95 93.4967 212.616 92.1631 213.95L87.9205 218.192C86.5869 219.526 85.9208 220.192 85.092 220.192C84.2633 220.192 83.5972 219.526 82.2636 218.192L79.8481 215.777C78.9422 216.132 77.9523 216.215 76.9998 216.016C76.0472 215.818 75.1734 215.345 74.4854 214.657ZM84.5617 214.834C84.4211 214.974 84.342 215.165 84.342 215.364C84.342 215.563 84.4211 215.754 84.5617 215.894C84.7024 216.035 84.8931 216.114 85.092 216.114C85.2909 216.114 85.4817 216.035 85.6224 215.894L89.865 211.652C90.0057 211.511 90.0847 211.32 90.0847 211.121C90.0847 210.922 90.0057 210.732 89.865 210.591C89.7244 210.45 89.5336 210.371 89.3347 210.371C89.1358 210.371 88.945 210.45 88.8043 210.591L84.5617 214.834Z" fill="#FDEAD7" fill-opacity="0.6"/>
</g>
<g clip-path="url(#clip20_1964_8788)">
<path d="M416.744 374.016L416.189 374.57C414.607 373.255 412.591 372.578 410.536 372.673C408.481 372.767 406.535 373.626 405.081 375.08C403.626 376.535 402.767 378.481 402.673 380.536C402.579 382.591 403.256 384.607 404.571 386.189L404.016 386.744C403.875 386.884 403.796 387.075 403.796 387.274C403.796 387.473 403.875 387.664 404.016 387.804C405.28 389.063 406.863 389.953 408.596 390.376C410.328 390.8 412.144 390.743 413.846 390.209L414.092 390.456C414.374 390.737 414.755 390.895 415.153 390.895C415.551 390.895 415.932 390.737 416.214 390.456L420.456 386.213C420.738 385.932 420.896 385.55 420.896 385.153C420.896 384.755 420.738 384.373 420.456 384.092L420.21 383.845C420.743 382.143 420.801 380.328 420.377 378.595C419.953 376.863 419.064 375.279 417.805 374.016C417.664 373.875 417.473 373.796 417.274 373.796C417.075 373.796 416.885 373.875 416.744 374.016ZM410.228 374.198C410.449 374.176 410.671 374.164 410.892 374.163C409.977 376.072 409.831 378.259 410.485 380.272L408.529 382.228C407.932 380.967 407.738 379.553 407.974 378.178C408.21 376.803 408.865 375.535 409.85 374.546C409.971 374.425 410.098 374.309 410.228 374.198ZM411.714 379.046C411.392 377.438 411.668 375.768 412.489 374.35C413.451 374.579 414.351 375.019 415.123 375.637L411.714 379.046ZM406.137 376.137C406.563 375.712 407.044 375.345 407.567 375.048C406.816 376.295 406.406 377.718 406.38 379.174C406.354 380.63 406.712 382.067 407.419 383.341L405.638 385.122C404.603 383.824 404.082 382.191 404.174 380.534C404.266 378.877 404.965 377.312 406.137 376.137Z" fill="#FDEAD7" fill-opacity="0.6"/>
</g>
<g clip-path="url(#clip21_1964_8788)">
<path d="M313.309 378.328C313.448 378.944 313.729 379.519 314.131 380.007C314.695 380.641 315.378 381.141 316.197 381.216C317.053 381.293 317.767 380.885 318.323 380.329C318.893 379.759 319.276 379.028 319.197 378.182C319.119 377.366 318.633 376.679 317.996 376.124C317.511 375.736 316.943 375.463 316.337 375.325C315.67 375.173 314.66 375.139 313.896 375.902C313.141 376.658 313.157 377.652 313.309 378.328ZM316.021 385.092C315.458 385.655 315.142 386.418 315.142 387.213C315.142 388.009 315.458 388.772 316.021 389.335L316.029 389.343L320.728 388.762C320.835 388.748 320.934 388.701 321.012 388.627C321.089 388.552 321.141 388.455 321.158 388.349L321.611 385.662C321.697 385.149 321.941 384.676 322.308 384.309C322.676 383.941 323.149 383.698 323.662 383.611L326.349 383.159C326.454 383.141 326.552 383.09 326.626 383.012C326.7 382.935 326.748 382.835 326.761 382.729L327.343 378.029L327.334 378.021C326.772 377.458 326.009 377.142 325.213 377.142C324.417 377.142 323.654 377.458 323.092 378.021L316.021 385.092ZM328.747 382.972L329.136 379.823L332.284 382.971L332.991 382.264C333.179 382.076 333.433 381.971 333.698 381.971C333.963 381.971 334.218 382.076 334.405 382.264C334.593 382.451 334.698 382.705 334.698 382.971C334.698 383.236 334.593 383.49 334.405 383.678L321.677 396.406C321.49 396.593 321.235 396.699 320.97 396.699C320.705 396.699 320.451 396.593 320.263 396.406C320.076 396.218 319.97 395.964 319.97 395.699C319.97 395.433 320.076 395.179 320.263 394.992L320.97 394.284L317.822 391.136L320.972 390.747C321.507 390.682 322.006 390.445 322.395 390.072C322.785 389.7 323.043 389.211 323.133 388.68L323.584 385.994C323.601 385.892 323.65 385.797 323.723 385.724C323.797 385.65 323.891 385.601 323.994 385.584L326.681 385.132C327.212 385.042 327.7 384.784 328.072 384.395C328.444 384.006 328.681 383.507 328.747 382.972Z" fill="#FDEAD7" fill-opacity="0.6"/>
</g>
<path d="M234.103 213.643C235.104 214.644 236.438 215.223 237.776 215.555C239.12 215.888 240.523 215.986 241.726 215.985C241.811 215.986 241.893 216.02 241.953 216.08C242.013 216.14 242.048 216.222 242.049 216.307C242.056 218.078 242.269 220.323 243.136 222.139C243.462 222.821 244.134 223.106 244.771 222.965C245.367 222.832 245.856 222.35 246.015 221.698C246.209 220.903 246.46 219.981 246.745 219.179C246.887 218.778 247.033 218.419 247.179 218.127C247.331 217.825 247.459 217.64 247.551 217.549C247.641 217.458 247.826 217.329 248.128 217.178C248.42 217.032 248.778 216.886 249.179 216.744C249.98 216.46 250.902 216.21 251.696 216.016C252.348 215.857 252.831 215.368 252.963 214.771C253.105 214.134 252.82 213.462 252.138 213.136C250.325 212.269 248.084 212.056 246.315 212.046C246.141 212.046 245.994 211.899 245.994 211.723C245.994 210.521 245.896 209.117 245.563 207.773C245.23 206.433 244.651 205.099 243.649 204.097C242.529 202.977 241.04 202.429 239.593 202.18C238.142 201.93 236.667 201.971 235.501 202.085C234.624 202.165 233.803 202.551 233.18 203.174C232.557 203.796 232.172 204.618 232.091 205.495C231.978 206.661 231.937 208.135 232.186 209.587C232.436 211.034 232.984 212.523 234.103 213.643ZM235 208C235 207.735 235.105 207.48 235.293 207.293C235.48 207.105 235.735 207 236 207C236.265 207 236.52 207.105 236.707 207.293C236.895 207.48 237 207.735 237 208C237 208.265 236.895 208.519 236.707 208.707C236.52 208.895 236.265 209 236 209C235.735 209 235.48 208.895 235.293 208.707C235.105 208.519 235 208.265 235 208Z" fill="#FDEAD7" fill-opacity="0.6"/>
<g clip-path="url(#clip22_1964_8788)">
<path d="M167.455 209.728C164.185 206.458 159.007 206.239 155.476 209.063L154.02 207.607L152.606 209.021L154.062 210.477C151.239 214.007 151.457 219.185 154.727 222.456L156.142 223.87L168.87 211.142L167.455 209.728ZM156.142 225.284L170.284 211.142L171.698 212.556L157.556 226.698L156.142 225.284Z" fill="#FDEAD7" fill-opacity="0.6"/>
</g>
<g clip-path="url(#clip23_1964_8788)">
<path fill-rule="evenodd" clip-rule="evenodd" d="M240.485 242.628C239.977 242.119 239.584 241.507 239.334 240.833C239.083 240.159 238.981 239.439 239.034 238.722C239.087 238.005 239.294 237.308 239.641 236.679C239.988 236.049 240.467 235.501 241.045 235.074C240.629 234.23 240.487 233.277 240.641 232.349C240.794 231.421 241.234 230.564 241.899 229.899C242.564 229.234 243.421 228.794 244.349 228.641C245.277 228.487 246.23 228.629 247.074 229.045C247.794 228.068 248.846 227.388 250.031 227.129C251.217 226.871 252.456 227.053 253.518 227.641C254.58 228.228 255.391 229.182 255.802 230.325C256.212 231.467 256.193 232.719 255.748 233.848L258.163 236.264C259.497 237.597 260.163 238.263 260.163 239.092C260.163 239.921 259.497 240.587 258.163 241.92L253.92 246.163C252.587 247.497 251.921 248.163 251.092 248.163C250.263 248.163 249.597 247.497 248.264 246.163L245.848 243.748C244.942 244.103 243.952 244.186 243 243.987C242.047 243.788 241.173 243.316 240.485 242.628ZM250.562 242.804C250.421 242.945 250.342 243.136 250.342 243.335C250.342 243.534 250.421 243.724 250.562 243.865C250.702 244.006 250.893 244.085 251.092 244.085C251.291 244.085 251.482 244.006 251.622 243.865L255.865 239.622C256.006 239.482 256.085 239.291 256.085 239.092C256.085 238.893 256.006 238.702 255.865 238.562C255.724 238.421 255.534 238.342 255.335 238.342C255.136 238.342 254.945 238.421 254.804 238.562L250.562 242.804Z" fill="#FDEAD7" fill-opacity="0.6"/>
</g>
<g clip-path="url(#clip24_1964_8788)">
<path d="M579.455 220.728C576.185 217.458 571.007 217.239 567.476 220.063L566.02 218.607L564.606 220.021L566.062 221.477C563.239 225.007 563.457 230.185 566.727 233.456L568.142 234.87L580.87 222.142L579.455 220.728ZM568.142 236.284L582.284 222.142L583.698 223.556L569.556 237.698L568.142 236.284Z" fill="#FDEAD7" fill-opacity="0.6"/>
</g>
<defs>
<clipPath id="clip0_1964_8788">
<rect width="24" height="24" fill="white" transform="translate(341.971 49.9707) rotate(-45)"/>
</clipPath>
<clipPath id="clip1_1964_8788">
<rect width="24" height="24" fill="white" transform="translate(0 243.971) rotate(-45)"/>
</clipPath>
<clipPath id="clip2_1964_8788">
<rect width="24" height="24" fill="white" transform="translate(605 72.9707) rotate(-45)"/>
</clipPath>
<clipPath id="clip3_1964_8788">
<rect width="24" height="24" fill="white" transform="translate(44 411.971) rotate(-45)"/>
</clipPath>
<clipPath id="clip4_1964_8788">
<rect width="24" height="24" fill="white" transform="translate(475 36.9707) rotate(-45)"/>
</clipPath>
<clipPath id="clip5_1964_8788">
<rect width="24" height="24" fill="white" transform="translate(535 306.971) rotate(-45)"/>
</clipPath>
<clipPath id="clip6_1964_8788">
<rect width="24" height="24" fill="white" transform="translate(523 68.9707) rotate(-45)"/>
</clipPath>
<clipPath id="clip7_1964_8788">
<rect width="24" height="24" fill="white" transform="translate(336 425.971) rotate(-45)"/>
</clipPath>
<clipPath id="clip8_1964_8788">
<rect width="24" height="24" fill="white" transform="translate(260 32.9707) rotate(-45)"/>
</clipPath>
<clipPath id="clip9_1964_8788">
<rect width="24" height="24" fill="white" transform="translate(561 365.971) rotate(-45)"/>
</clipPath>
<clipPath id="clip10_1964_8788">
<rect width="24" height="24" fill="white" transform="translate(227.971 342)"/>
</clipPath>
<clipPath id="clip11_1964_8788">
<rect width="24" height="24" fill="white" transform="translate(139 37)"/>
</clipPath>
<clipPath id="clip12_1964_8788">
<rect width="24" height="24" fill="white" transform="translate(509 232.971) rotate(-45)"/>
</clipPath>
<clipPath id="clip13_1964_8788">
<rect width="24" height="24" fill="white" transform="translate(635.029 433) rotate(-45)"/>
</clipPath>
<clipPath id="clip14_1964_8788">
<rect width="24" height="24" fill="white" transform="translate(175.029 273) rotate(-45)"/>
</clipPath>
<clipPath id="clip15_1964_8788">
<rect width="24" height="24" fill="white" transform="translate(398 385.971) rotate(-45)"/>
</clipPath>
<clipPath id="clip16_1964_8788">
<rect width="24" height="24" fill="white" transform="translate(88 355.971) rotate(-45)"/>
</clipPath>
<clipPath id="clip17_1964_8788">
<rect width="24" height="24" fill="white" transform="translate(597 16.9707) rotate(-45)"/>
</clipPath>
<clipPath id="clip18_1964_8788">
<rect width="24" height="24" fill="white" transform="translate(455 419.971) rotate(-45)"/>
</clipPath>
<clipPath id="clip19_1964_8788">
<rect width="24" height="24" fill="white" transform="translate(66 209) rotate(-45)"/>
</clipPath>
<clipPath id="clip20_1964_8788">
<rect width="24" height="24" fill="white" transform="translate(395 381.971) rotate(-45)"/>
</clipPath>
<clipPath id="clip21_1964_8788">
<rect width="24" height="24" fill="white" transform="translate(304 382.971) rotate(-45)"/>
</clipPath>
<clipPath id="clip22_1964_8788">
<rect width="24" height="24" fill="white" transform="translate(142 213.971) rotate(-45)"/>
</clipPath>
<clipPath id="clip23_1964_8788">
<rect width="24" height="24" fill="white" transform="translate(232 236.971) rotate(-45)"/>
</clipPath>
<clipPath id="clip24_1964_8788">
<rect width="24" height="24" fill="white" transform="translate(554 224.971) rotate(-45)"/>
</clipPath>
</defs>
</svg>
