<svg width="268" height="269" viewBox="0 0 268 269" fill="none" xmlns="http://www.w3.org/2000/svg">
<ellipse cx="133.768" cy="134.054" rx="114.76" ry="115.14" fill="#107569"/>
<path fill-rule="evenodd" clip-rule="evenodd" d="M155.59 21.0099L135.187 131.87L196.429 37.5926L197.266 38.1399L134.829 134.257L134.941 134.82L229.036 69.8444L229.601 70.669L135.734 135.489L245.385 112.664L245.587 113.643L135.805 136.495L246.253 156.957L246.072 157.94L135.808 137.513L230.291 198.458L229.751 199.3L136.689 139.271L198.691 229.654L197.868 230.222L135.977 140.001L157.319 246.748L156.338 246.945L134.538 137.903L134.514 137.868L134.129 137.62L113.914 247.462L112.93 247.28L133.18 137.252L132.642 137.624L71.944 231.062L71.107 230.515L130.479 139.117L40.5346 201.228L39.9689 200.403L131.097 137.475L20.8528 160.423L20.6503 159.444L130.623 136.552L20.3676 116.126L20.5486 115.143L131.008 135.606L36.6887 74.7666L37.2283 73.9247L132.787 135.564L132.858 135.455L67.7401 40.5294L68.563 39.9611L133.448 134.547L133.768 134.054L111.198 21.1625L112.178 20.9652L134.257 131.398L154.606 20.8277L155.59 21.0099Z" fill="white"/>
<mask id="path-3-inside-1_1244_16859" fill="white">
<path fill-rule="evenodd" clip-rule="evenodd" d="M204.235 101.734C204.235 117.632 191.828 130.67 176.048 131.933V183.039V183.544H176.02C175.206 190.84 156.826 196.674 134.272 196.674C111.717 196.674 93.3369 190.84 92.523 183.544H92.4949V183.039V131.998C76.2393 131.221 63.3015 117.968 63.3015 101.734C63.3015 84.9994 77.0479 71.4336 94.0048 71.4336C101.708 71.4336 108.748 74.2329 114.138 78.8568C119.528 74.2329 126.569 71.4336 134.272 71.4336C141.737 71.4336 148.58 74.0629 153.902 78.4343C159.223 74.0629 166.066 71.4336 173.532 71.4336C190.489 71.4336 204.235 84.9994 204.235 101.734Z"/>
</mask>
<path fill-rule="evenodd" clip-rule="evenodd" d="M204.235 101.734C204.235 117.632 191.828 130.67 176.048 131.933V183.039V183.544H176.02C175.206 190.84 156.826 196.674 134.272 196.674C111.717 196.674 93.3369 190.84 92.523 183.544H92.4949V183.039V131.998C76.2393 131.221 63.3015 117.968 63.3015 101.734C63.3015 84.9994 77.0479 71.4336 94.0048 71.4336C101.708 71.4336 108.748 74.2329 114.138 78.8568C119.528 74.2329 126.569 71.4336 134.272 71.4336C141.737 71.4336 148.58 74.0629 153.902 78.4343C159.223 74.0629 166.066 71.4336 173.532 71.4336C190.489 71.4336 204.235 84.9994 204.235 101.734Z" fill="white"/>
<path d="M176.048 131.933L175.729 127.946L172.048 128.241V131.933H176.048ZM176.048 183.544V187.544H180.048V183.544H176.048ZM176.02 183.544V179.544H172.441L172.045 183.1L176.02 183.544ZM92.523 183.544L96.4983 183.1L96.1016 179.544H92.523V183.544ZM92.4949 183.544H88.4949V187.544H92.4949V183.544ZM92.4949 131.998H96.4949V128.184L92.6858 128.002L92.4949 131.998ZM114.138 78.8568L111.534 81.8928L114.138 84.127L116.743 81.8928L114.138 78.8568ZM153.902 78.4343L151.363 81.5252L153.902 83.6108L156.44 81.5252L153.902 78.4343ZM176.367 135.921C194.165 134.496 208.235 119.778 208.235 101.734H200.235C200.235 115.485 189.491 126.844 175.729 127.946L176.367 135.921ZM180.048 183.039V131.933H172.048V183.039H180.048ZM180.048 183.544V183.039H172.048V183.544H180.048ZM176.02 187.544H176.048V179.544H176.02V187.544ZM172.045 183.1C172.024 183.286 171.787 184.135 169.992 185.424C168.272 186.659 165.63 187.915 162.095 189.03C155.06 191.249 145.249 192.674 134.272 192.674V200.674C145.849 200.674 156.505 199.182 164.502 196.66C168.483 195.404 171.998 193.833 174.659 191.922C177.243 190.066 179.609 187.45 179.995 183.987L172.045 183.1ZM134.272 192.674C123.294 192.674 113.483 191.249 106.448 189.03C102.913 187.915 100.271 186.659 98.5513 185.424C96.7556 184.135 96.519 183.286 96.4983 183.1L88.5476 183.987C88.9339 187.45 91.3 190.066 93.8844 191.922C96.5449 193.833 100.06 195.404 104.041 196.66C112.038 199.182 122.694 200.674 134.272 200.674V192.674ZM92.4949 187.544H92.523V179.544H92.4949V187.544ZM88.4949 183.039V183.544H96.4949V183.039H88.4949ZM88.4949 131.998V183.039H96.4949V131.998H88.4949ZM59.3015 101.734C59.3015 120.16 73.9728 135.117 92.3039 135.993L92.6858 128.002C78.5058 127.324 67.3015 115.777 67.3015 101.734H59.3015ZM94.0048 67.4336C74.8888 67.4336 59.3015 82.7405 59.3015 101.734H67.3015C67.3015 87.2582 79.207 75.4336 94.0048 75.4336V67.4336ZM116.743 75.8209C110.65 70.5946 102.693 67.4336 94.0048 67.4336V75.4336C100.722 75.4336 106.846 77.8711 111.534 81.8928L116.743 75.8209ZM134.272 67.4336C125.583 67.4336 117.626 70.5946 111.534 75.8209L116.743 81.8928C121.431 77.8711 127.554 75.4336 134.272 75.4336V67.4336ZM156.44 75.3434C150.425 70.4025 142.691 67.4336 134.272 67.4336V75.4336C140.782 75.4336 146.734 77.7233 151.363 81.5252L156.44 75.3434ZM173.532 67.4336C165.112 67.4336 157.378 70.4025 151.363 75.3434L156.44 81.5252C161.069 77.7233 167.021 75.4336 173.532 75.4336V67.4336ZM208.235 101.734C208.235 82.7405 192.648 67.4336 173.532 67.4336V75.4336C188.329 75.4336 200.235 87.2582 200.235 101.734H208.235Z" fill="#107569" mask="url(#path-3-inside-1_1244_16859)"/>
<path d="M258.805 134.251C258.805 203.436 202.906 259.511 133.965 259.511C65.0238 259.511 9.12476 203.436 9.12476 134.251C9.12476 65.0653 65.0238 8.99072 133.965 8.99072C202.906 8.99072 258.805 65.0653 258.805 134.251Z" stroke="#107569" stroke-width="4"/>
<mask id="path-6-outside-2_1244_16859" maskUnits="userSpaceOnUse" x="65" y="74" width="57" height="56" fill="black">
<rect fill="white" x="65" y="74" width="57" height="56"/>
<path d="M66.2168 101.736C66.2168 98.0397 66.9141 94.5977 68.3086 91.4102C69.7031 88.2005 71.7174 85.4225 74.3516 83.0762C77.0078 80.7077 80.2396 78.8483 84.0469 77.498C87.8763 76.1478 92.2038 75.4727 97.0293 75.4727C101.257 75.4727 105.131 75.9043 108.65 76.7676C112.192 77.6087 115.479 78.9036 118.512 80.6523L113.664 88.6211C112.757 88.0234 111.705 87.4922 110.51 87.0273C109.337 86.5625 108.075 86.1751 106.725 85.8652C105.396 85.5332 104.013 85.2786 102.574 85.1016C101.158 84.9245 99.752 84.8359 98.3574 84.8359C94.9928 84.8359 91.9935 85.2565 89.3594 86.0977C86.7253 86.9167 84.5007 88.0788 82.6855 89.584C80.8926 91.0671 79.5202 92.849 78.5684 94.9297C77.6387 96.9883 77.1738 99.2572 77.1738 101.736C77.1738 104.304 77.6608 106.661 78.6348 108.809C79.6087 110.956 81.0143 112.815 82.8516 114.387C84.7109 115.936 86.9688 117.154 89.625 118.039C92.3034 118.902 95.3249 119.334 98.6895 119.334C100.217 119.334 101.733 119.223 103.238 119.002C104.743 118.781 106.193 118.482 107.588 118.105C109.005 117.707 110.366 117.242 111.672 116.711C112.978 116.158 114.195 115.56 115.324 114.918L120.172 122.887C117.339 124.702 114.062 126.13 110.344 127.17C106.625 128.188 102.674 128.697 98.4902 128.697C93.1556 128.697 88.474 128.011 84.4453 126.639C80.4167 125.244 77.0521 123.34 74.3516 120.928C71.651 118.493 69.6146 115.637 68.2422 112.361C66.8919 109.063 66.2168 105.521 66.2168 101.736Z"/>
</mask>
<path d="M66.2168 101.736C66.2168 98.0397 66.9141 94.5977 68.3086 91.4102C69.7031 88.2005 71.7174 85.4225 74.3516 83.0762C77.0078 80.7077 80.2396 78.8483 84.0469 77.498C87.8763 76.1478 92.2038 75.4727 97.0293 75.4727C101.257 75.4727 105.131 75.9043 108.65 76.7676C112.192 77.6087 115.479 78.9036 118.512 80.6523L113.664 88.6211C112.757 88.0234 111.705 87.4922 110.51 87.0273C109.337 86.5625 108.075 86.1751 106.725 85.8652C105.396 85.5332 104.013 85.2786 102.574 85.1016C101.158 84.9245 99.752 84.8359 98.3574 84.8359C94.9928 84.8359 91.9935 85.2565 89.3594 86.0977C86.7253 86.9167 84.5007 88.0788 82.6855 89.584C80.8926 91.0671 79.5202 92.849 78.5684 94.9297C77.6387 96.9883 77.1738 99.2572 77.1738 101.736C77.1738 104.304 77.6608 106.661 78.6348 108.809C79.6087 110.956 81.0143 112.815 82.8516 114.387C84.7109 115.936 86.9688 117.154 89.625 118.039C92.3034 118.902 95.3249 119.334 98.6895 119.334C100.217 119.334 101.733 119.223 103.238 119.002C104.743 118.781 106.193 118.482 107.588 118.105C109.005 117.707 110.366 117.242 111.672 116.711C112.978 116.158 114.195 115.56 115.324 114.918L120.172 122.887C117.339 124.702 114.062 126.13 110.344 127.17C106.625 128.188 102.674 128.697 98.4902 128.697C93.1556 128.697 88.474 128.011 84.4453 126.639C80.4167 125.244 77.0521 123.34 74.3516 120.928C71.651 118.493 69.6146 115.637 68.2422 112.361C66.8919 109.063 66.2168 105.521 66.2168 101.736Z" fill="#107569"/>
<path d="M68.3086 91.4102L69.2248 91.811L69.2258 91.8087L68.3086 91.4102ZM74.3516 83.0762L75.0167 83.8229L75.0171 83.8226L74.3516 83.0762ZM84.0469 77.498L83.7143 76.555L83.7126 76.5556L84.0469 77.498ZM108.65 76.7676L108.412 77.7388L108.419 77.7405L108.65 76.7676ZM118.512 80.6523L119.366 81.1721L119.898 80.2975L119.011 79.7861L118.512 80.6523ZM113.664 88.6211L113.114 89.4563L113.98 90.0263L114.518 89.1408L113.664 88.6211ZM110.51 87.0273L110.141 87.957L110.147 87.9593L110.51 87.0273ZM106.725 85.8652L106.482 86.8354L106.491 86.8377L106.501 86.8399L106.725 85.8652ZM102.574 85.1016L102.45 86.0938L102.452 86.0941L102.574 85.1016ZM89.3594 86.0977L89.6563 87.0526L89.6636 87.0503L89.3594 86.0977ZM82.6855 89.584L83.3229 90.3545L83.3239 90.3537L82.6855 89.584ZM78.5684 94.9297L77.659 94.5137L77.657 94.5181L78.5684 94.9297ZM78.6348 108.809L77.7241 109.222L78.6348 108.809ZM82.8516 114.387L82.2015 115.147L82.2114 115.155L82.8516 114.387ZM89.625 118.039L89.3088 118.988L89.3182 118.991L89.625 118.039ZM107.588 118.105L107.848 119.071L107.859 119.068L107.588 118.105ZM111.672 116.711L112.049 117.637L112.055 117.635L112.062 117.632L111.672 116.711ZM115.324 114.918L116.179 114.398L115.674 113.569L114.83 114.049L115.324 114.918ZM120.172 122.887L120.711 123.729L121.534 123.202L121.026 122.367L120.172 122.887ZM110.344 127.17L110.608 128.134L110.613 128.133L110.344 127.17ZM84.4453 126.639L84.1182 127.584L84.1229 127.585L84.4453 126.639ZM74.3516 120.928L73.6819 121.67L73.6853 121.673L74.3516 120.928ZM68.2422 112.361L67.3167 112.74L67.3198 112.748L68.2422 112.361ZM67.2168 101.736C67.2168 98.1689 67.8889 94.8643 69.2248 91.811L67.3924 91.0093C65.9392 94.331 65.2168 97.9105 65.2168 101.736H67.2168ZM69.2258 91.8087C70.562 88.7331 72.49 86.0736 75.0167 83.8229L73.6864 82.3295C70.9449 84.7714 68.8442 87.668 67.3914 91.0117L69.2258 91.8087ZM75.0171 83.8226C77.5645 81.5511 80.6795 79.7533 84.3811 78.4405L83.7126 76.5556C79.7996 77.9433 76.4512 79.8642 73.686 82.3298L75.0171 83.8226ZM84.3794 78.4411C88.084 77.1349 92.2963 76.4727 97.0293 76.4727V74.4727C92.1113 74.4727 87.6686 75.1607 83.7143 76.555L84.3794 78.4411ZM97.0293 76.4727C101.19 76.4727 104.982 76.8975 108.412 77.7388L108.889 75.7964C105.279 74.9111 101.324 74.4727 97.0293 74.4727V76.4727ZM108.419 77.7405C111.871 78.5602 115.067 79.8202 118.012 81.5186L119.011 79.7861C115.892 77.9871 112.514 76.6573 108.881 75.7946L108.419 77.7405ZM117.657 80.1326L112.81 88.1014L114.518 89.1408L119.366 81.1721L117.657 80.1326ZM114.214 87.7859C113.238 87.1433 112.122 86.5813 110.872 86.0953L110.147 87.9593C111.288 88.4031 112.275 88.9036 113.114 89.4563L114.214 87.7859ZM110.878 86.0977C109.654 85.6125 108.343 85.2107 106.948 84.8906L106.501 86.8399C107.807 87.1396 109.02 87.5125 110.141 87.957L110.878 86.0977ZM106.967 84.8951C105.597 84.5526 104.173 84.2908 102.696 84.1091L102.452 86.0941C103.853 86.2665 105.196 86.5138 106.482 86.8354L106.967 84.8951ZM102.698 84.1093C101.241 83.9272 99.7944 83.8359 98.3574 83.8359V85.8359C99.7095 85.8359 101.074 85.9218 102.45 86.0938L102.698 84.1093ZM98.3574 83.8359C94.9112 83.8359 91.8063 84.2665 89.0552 85.145L89.6636 87.0503C92.1807 86.2465 95.0745 85.8359 98.3574 85.8359V83.8359ZM89.0625 85.1427C86.3244 85.9941 83.9785 87.2127 82.0472 88.8142L83.3239 90.3537C85.0228 88.9449 87.1261 87.8393 89.6563 87.0526L89.0625 85.1427ZM82.0482 88.8134C80.141 90.391 78.6747 92.2934 77.659 94.5137L79.4777 95.3457C80.3657 93.4045 81.6442 91.7431 83.3229 90.3545L82.0482 88.8134ZM77.657 94.5181C76.6634 96.7182 76.1738 99.1292 76.1738 101.736H78.1738C78.1738 99.3851 78.614 97.2584 79.4797 95.3413L77.657 94.5181ZM76.1738 101.736C76.1738 104.434 76.6862 106.934 77.7241 109.222L79.5455 108.395C78.6354 106.389 78.1738 104.174 78.1738 101.736H76.1738ZM77.7241 109.222C78.7601 111.506 80.256 113.482 82.2015 115.147L83.5016 113.627C81.7727 112.148 80.4574 110.406 79.5455 108.395L77.7241 109.222ZM82.2114 115.155C84.1803 116.796 86.5525 118.069 89.3088 118.988L89.9412 117.09C87.385 116.238 85.2416 115.077 83.4917 113.618L82.2114 115.155ZM89.3182 118.991C92.1129 119.892 95.2405 120.334 98.6895 120.334V118.334C95.4093 118.334 92.4938 117.913 89.9318 117.087L89.3182 118.991ZM98.6895 120.334C100.265 120.334 101.83 120.22 103.384 119.991L103.093 118.013C101.636 118.227 100.168 118.334 98.6895 118.334V120.334ZM103.384 119.991C104.926 119.765 106.414 119.458 107.848 119.071L107.327 117.14C105.973 117.506 104.561 117.797 103.093 118.013L103.384 119.991ZM107.859 119.068C109.31 118.66 110.707 118.183 112.049 117.637L111.295 115.785C110.025 116.301 108.699 116.754 107.317 117.143L107.859 119.068ZM112.062 117.632C113.4 117.065 114.653 116.45 115.819 115.787L114.83 114.049C113.738 114.67 112.555 115.251 111.282 115.79L112.062 117.632ZM114.47 115.438L119.318 123.406L121.026 122.367L116.179 114.398L114.47 115.438ZM119.632 122.045C116.894 123.799 113.711 125.189 110.074 126.207L110.613 128.133C114.414 127.07 117.783 125.605 120.711 123.729L119.632 122.045ZM110.08 126.205C106.454 127.198 102.592 127.697 98.4902 127.697V129.697C102.756 129.697 106.796 129.178 110.608 128.134L110.08 126.205ZM98.4902 127.697C93.2387 127.697 88.6701 127.021 84.7678 125.692L84.1229 127.585C88.2778 129.001 93.0725 129.697 98.4902 129.697V127.697ZM84.7724 125.694C80.8471 124.335 77.6037 122.492 75.0178 120.182L73.6853 121.673C76.5004 124.189 79.9863 126.153 84.1182 127.584L84.7724 125.694ZM75.0212 120.185C72.4275 117.846 70.4786 115.112 69.1645 111.975L67.3198 112.748C68.7506 116.163 70.8746 119.139 73.6819 121.67L75.0212 120.185ZM69.1676 111.982C67.8696 108.812 67.2168 105.4 67.2168 101.736H65.2168C65.2168 105.643 65.9142 109.314 67.3167 112.74L69.1676 111.982Z" fill="white" mask="url(#path-6-outside-2_1244_16859)"/>
<mask id="path-8-outside-3_1244_16859" maskUnits="userSpaceOnUse" x="111" y="102" width="47" height="40" fill="black">
<rect fill="white" x="111" y="102" width="47" height="40"/>
<path d="M112.451 122.139C112.451 119.576 112.966 117.174 113.995 114.934C115.045 112.693 116.528 110.736 118.445 109.061C120.383 107.385 122.714 106.063 125.438 105.095C128.183 104.126 131.261 103.642 134.672 103.642C138.083 103.642 141.15 104.126 143.875 105.095C146.62 106.063 148.951 107.385 150.868 109.061C152.806 110.736 154.289 112.693 155.318 114.934C156.368 117.174 156.893 119.576 156.893 122.139C156.893 124.702 156.368 127.104 155.318 129.344C154.289 131.584 152.806 133.542 150.868 135.217C148.951 136.892 146.62 138.214 143.875 139.183C141.15 140.151 138.083 140.636 134.672 140.636C131.261 140.636 128.183 140.151 125.438 139.183C122.714 138.214 120.383 136.892 118.445 135.217C116.528 133.542 115.045 131.584 113.995 129.344C112.966 127.104 112.451 124.702 112.451 122.139ZM121.866 122.139C121.866 123.572 122.149 124.934 122.714 126.226C123.299 127.497 124.137 128.627 125.227 129.616C126.337 130.585 127.679 131.362 129.253 131.947C130.847 132.512 132.654 132.795 134.672 132.795C136.69 132.795 138.486 132.512 140.061 131.947C141.655 131.362 142.997 130.585 144.087 129.616C145.197 128.627 146.035 127.497 146.6 126.226C147.185 124.934 147.478 123.572 147.478 122.139C147.478 120.706 147.185 119.343 146.6 118.052C146.035 116.76 145.197 115.63 144.087 114.661C142.997 113.672 141.655 112.895 140.061 112.33C138.486 111.745 136.69 111.452 134.672 111.452C132.654 111.452 130.847 111.745 129.253 112.33C127.679 112.895 126.337 113.672 125.227 114.661C124.137 115.63 123.299 116.76 122.714 118.052C122.149 119.343 121.866 120.706 121.866 122.139Z"/>
</mask>
<path d="M112.451 122.139C112.451 119.576 112.966 117.174 113.995 114.934C115.045 112.693 116.528 110.736 118.445 109.061C120.383 107.385 122.714 106.063 125.438 105.095C128.183 104.126 131.261 103.642 134.672 103.642C138.083 103.642 141.15 104.126 143.875 105.095C146.62 106.063 148.951 107.385 150.868 109.061C152.806 110.736 154.289 112.693 155.318 114.934C156.368 117.174 156.893 119.576 156.893 122.139C156.893 124.702 156.368 127.104 155.318 129.344C154.289 131.584 152.806 133.542 150.868 135.217C148.951 136.892 146.62 138.214 143.875 139.183C141.15 140.151 138.083 140.636 134.672 140.636C131.261 140.636 128.183 140.151 125.438 139.183C122.714 138.214 120.383 136.892 118.445 135.217C116.528 133.542 115.045 131.584 113.995 129.344C112.966 127.104 112.451 124.702 112.451 122.139ZM121.866 122.139C121.866 123.572 122.149 124.934 122.714 126.226C123.299 127.497 124.137 128.627 125.227 129.616C126.337 130.585 127.679 131.362 129.253 131.947C130.847 132.512 132.654 132.795 134.672 132.795C136.69 132.795 138.486 132.512 140.061 131.947C141.655 131.362 142.997 130.585 144.087 129.616C145.197 128.627 146.035 127.497 146.6 126.226C147.185 124.934 147.478 123.572 147.478 122.139C147.478 120.706 147.185 119.343 146.6 118.052C146.035 116.76 145.197 115.63 144.087 114.661C142.997 113.672 141.655 112.895 140.061 112.33C138.486 111.745 136.69 111.452 134.672 111.452C132.654 111.452 130.847 111.745 129.253 112.33C127.679 112.895 126.337 113.672 125.227 114.661C124.137 115.63 123.299 116.76 122.714 118.052C122.149 119.343 121.866 120.706 121.866 122.139Z" fill="#107569"/>
<path d="M113.995 114.934L113.09 114.509L113.086 114.516L113.995 114.934ZM118.445 109.061L117.791 108.304L117.787 108.307L118.445 109.061ZM125.438 105.095L125.106 104.152L125.103 104.153L125.438 105.095ZM143.875 105.095L143.54 106.037L143.542 106.038L143.875 105.095ZM150.868 109.061L150.21 109.814L150.214 109.817L150.868 109.061ZM155.318 114.934L154.41 115.351L154.413 115.358L155.318 114.934ZM155.318 129.344L154.413 128.92L154.41 128.926L155.318 129.344ZM150.868 135.217L150.214 134.46L150.21 134.464L150.868 135.217ZM143.875 139.183L143.542 138.24L143.54 138.24L143.875 139.183ZM125.438 139.183L125.103 140.125L125.106 140.126L125.438 139.183ZM118.445 135.217L117.787 135.97L117.791 135.973L118.445 135.217ZM113.995 129.344L113.086 129.761L113.09 129.768L113.995 129.344ZM122.714 126.226L121.798 126.626L121.802 126.635L121.805 126.644L122.714 126.226ZM125.227 129.616L124.555 130.357L124.562 130.363L124.569 130.37L125.227 129.616ZM129.253 131.947L128.904 132.885L128.912 132.887L128.919 132.89L129.253 131.947ZM140.061 131.947L140.398 132.888L140.405 132.886L140.061 131.947ZM144.087 129.616L144.751 130.364L144.752 130.363L144.087 129.616ZM146.6 126.226L145.689 125.813L145.686 125.819L146.6 126.226ZM146.6 118.052L145.683 118.453L145.689 118.464L146.6 118.052ZM144.087 114.661L143.415 115.402L143.422 115.408L143.429 115.415L144.087 114.661ZM140.061 112.33L139.712 113.267L139.719 113.27L139.726 113.273L140.061 112.33ZM129.253 112.33L129.591 113.271L129.598 113.269L129.253 112.33ZM125.227 114.661L125.891 115.409L125.892 115.408L125.227 114.661ZM122.714 118.052L121.803 117.639L121.798 117.651L122.714 118.052ZM113.451 122.139C113.451 119.714 113.937 117.455 114.904 115.351L113.086 114.516C111.995 116.893 111.451 119.437 111.451 122.139H113.451ZM114.901 115.358C115.89 113.247 117.287 111.4 119.103 109.814L117.787 108.307C115.769 110.071 114.2 112.14 113.09 114.509L114.901 115.358ZM119.099 109.817C120.932 108.233 123.151 106.969 125.773 106.037L125.103 104.153C122.277 105.158 119.834 106.538 117.791 108.304L119.099 109.817ZM125.771 106.038C128.393 105.113 131.355 104.642 134.672 104.642V102.642C131.167 102.642 127.974 103.139 125.106 104.152L125.771 106.038ZM134.672 104.642C137.989 104.642 140.94 105.113 143.54 106.037L144.21 104.153C141.36 103.139 138.177 102.642 134.672 102.642V104.642ZM143.542 106.038C146.184 106.97 148.401 108.233 150.21 109.814L151.526 108.307C149.501 106.538 147.055 105.157 144.208 104.152L143.542 106.038ZM150.214 109.817C152.048 111.402 153.442 113.246 154.41 115.351L156.227 114.516C155.136 112.141 153.564 110.069 151.522 108.304L150.214 109.817ZM154.413 115.358C155.398 117.46 155.893 119.717 155.893 122.139H157.893C157.893 119.434 157.338 116.887 156.224 114.509L154.413 115.358ZM155.893 122.139C155.893 124.561 155.398 126.817 154.413 128.92L156.224 129.768C157.338 127.39 157.893 124.843 157.893 122.139H155.893ZM154.41 128.926C153.442 131.032 152.048 132.875 150.214 134.46L151.522 135.973C153.564 134.208 155.136 132.136 156.227 129.761L154.41 128.926ZM150.21 134.464C148.401 136.044 146.184 137.307 143.542 138.24L144.208 140.126C147.055 139.121 149.501 137.739 151.526 135.97L150.21 134.464ZM143.54 138.24C140.94 139.165 137.989 139.636 134.672 139.636V141.636C138.177 141.636 141.36 141.138 144.21 140.125L143.54 138.24ZM134.672 139.636C131.355 139.636 128.393 139.165 125.771 138.24L125.106 140.126C127.974 141.138 131.167 141.636 134.672 141.636V139.636ZM125.773 138.24C123.151 137.308 120.932 136.044 119.099 134.46L117.791 135.973C119.834 137.739 122.277 139.12 125.103 140.125L125.773 138.24ZM119.103 134.464C117.287 132.877 115.89 131.03 114.901 128.92L113.09 129.768C114.2 132.138 115.769 134.206 117.787 135.97L119.103 134.464ZM114.904 128.926C113.937 126.822 113.451 124.564 113.451 122.139H111.451C111.451 124.84 111.995 127.385 113.086 129.761L114.904 128.926ZM120.866 122.139C120.866 123.707 121.176 125.206 121.798 126.626L123.63 125.825C123.121 124.662 122.866 123.436 122.866 122.139H120.866ZM121.805 126.644C122.45 128.044 123.37 129.282 124.555 130.357L125.899 128.876C124.903 127.972 124.148 126.95 123.622 125.807L121.805 126.644ZM124.569 130.37C125.782 131.428 127.233 132.263 128.904 132.885L129.601 131.01C128.125 130.461 126.891 129.742 125.884 128.863L124.569 130.37ZM128.919 132.89C130.639 133.499 132.561 133.795 134.672 133.795V131.795C132.746 131.795 131.056 131.525 129.587 131.005L128.919 132.89ZM134.672 133.795C136.782 133.795 138.696 133.5 140.398 132.888L139.723 131.006C138.277 131.525 136.598 131.795 134.672 131.795V133.795ZM140.405 132.886C142.098 132.265 143.554 131.428 144.751 130.364L143.423 128.869C142.44 129.742 141.212 130.459 139.716 131.009L140.405 132.886ZM144.752 130.363C145.961 129.286 146.887 128.042 147.513 126.632L145.686 125.819C145.182 126.952 144.433 127.969 143.422 128.87L144.752 130.363ZM147.51 126.638C148.155 125.216 148.478 123.712 148.478 122.139H146.478C146.478 123.431 146.215 124.652 145.689 125.813L147.51 126.638ZM148.478 122.139C148.478 120.565 148.155 119.062 147.51 117.639L145.689 118.464C146.215 119.625 146.478 120.847 146.478 122.139H148.478ZM147.516 117.651C146.889 116.218 145.961 114.969 144.744 113.908L143.429 115.415C144.433 116.291 145.18 117.302 145.683 118.453L147.516 117.651ZM144.759 113.921C143.557 112.83 142.095 111.99 140.395 111.388L139.726 113.273C141.214 113.8 142.437 114.514 143.415 115.402L144.759 113.921ZM140.409 111.393C138.703 110.759 136.786 110.452 134.672 110.452V112.452C136.594 112.452 138.269 112.731 139.712 113.267L140.409 111.393ZM134.672 110.452C132.558 110.452 130.632 110.759 128.908 111.391L129.598 113.269C131.063 112.731 132.75 112.452 134.672 112.452V110.452ZM128.915 111.389C127.235 111.992 125.778 112.83 124.561 113.914L125.892 115.408C126.895 114.514 128.122 113.798 129.591 113.271L128.915 111.389ZM124.562 113.914C123.371 114.973 122.448 116.216 121.803 117.639L123.625 118.464C124.151 117.304 124.903 116.287 125.891 115.409L124.562 113.914ZM121.798 117.651C121.176 119.071 120.866 120.57 120.866 122.139H122.866C122.866 120.841 123.121 119.616 123.63 118.453L121.798 117.651Z" fill="white" mask="url(#path-8-outside-3_1244_16859)"/>
<mask id="path-10-outside-4_1244_16859" maskUnits="userSpaceOnUse" x="108" y="145" width="54" height="49" fill="black">
<rect fill="white" x="108" y="145" width="54" height="49"/>
<path d="M109.183 146.5H119.5V187.817H124.683C126.12 187.817 127.339 187.309 128.34 186.291C129.357 185.274 129.866 184.071 129.866 182.683V146.5H140.183V187.817H145.366C146.77 187.817 147.973 187.309 148.974 186.291C149.991 185.274 150.5 184.071 150.5 182.683V146.5H160.866V175.345C160.866 180.156 159.13 184.305 155.659 187.793C152.203 191.264 148.054 193 143.21 193H129.866V191.353C127.88 192.451 125.434 193 122.527 193H109.183V146.5Z"/>
</mask>
<path d="M109.183 146.5H119.5V187.817H124.683C126.12 187.817 127.339 187.309 128.34 186.291C129.357 185.274 129.866 184.071 129.866 182.683V146.5H140.183V187.817H145.366C146.77 187.817 147.973 187.309 148.974 186.291C149.991 185.274 150.5 184.071 150.5 182.683V146.5H160.866V175.345C160.866 180.156 159.13 184.305 155.659 187.793C152.203 191.264 148.054 193 143.21 193H129.866V191.353C127.88 192.451 125.434 193 122.527 193H109.183V146.5Z" fill="#107569"/>
<path d="M109.183 146.5V145.5H108.183V146.5H109.183ZM119.5 146.5H120.5V145.5H119.5V146.5ZM119.5 187.817H118.5V188.817H119.5V187.817ZM128.34 186.291L127.633 185.584L127.627 185.59L128.34 186.291ZM129.866 146.5V145.5H128.866V146.5H129.866ZM140.183 146.5H141.183V145.5H140.183V146.5ZM140.183 187.817H139.183V188.817H140.183V187.817ZM148.974 186.291L148.267 185.584L148.261 185.59L148.974 186.291ZM150.5 146.5V145.5H149.5V146.5H150.5ZM160.866 146.5H161.866V145.5H160.866V146.5ZM155.659 187.793L154.95 187.088L154.95 187.088L155.659 187.793ZM129.866 193H128.866V194H129.866V193ZM129.866 191.353H130.866V189.658L129.382 190.478L129.866 191.353ZM109.183 193H108.183V194H109.183V193ZM109.183 147.5H119.5V145.5H109.183V147.5ZM118.5 146.5V187.817H120.5V146.5H118.5ZM119.5 188.817H124.683V186.817H119.5V188.817ZM124.683 188.817C126.386 188.817 127.862 188.203 129.053 186.993L127.627 185.59C126.815 186.415 125.854 186.817 124.683 186.817V188.817ZM129.047 186.999C130.244 185.801 130.866 184.347 130.866 182.683H128.866C128.866 183.796 128.47 184.747 127.633 185.584L129.047 186.999ZM130.866 182.683V146.5H128.866V182.683H130.866ZM129.866 147.5H140.183V145.5H129.866V147.5ZM139.183 146.5V187.817H141.183V146.5H139.183ZM140.183 188.817H145.366V186.817H140.183V188.817ZM145.366 188.817C147.043 188.817 148.501 188.198 149.687 186.993L148.261 185.59C147.445 186.42 146.498 186.817 145.366 186.817V188.817ZM149.681 186.999C150.879 185.801 151.5 184.347 151.5 182.683H149.5C149.5 183.796 149.104 184.747 148.267 185.584L149.681 186.999ZM151.5 182.683V146.5H149.5V182.683H151.5ZM150.5 147.5H160.866V145.5H150.5V147.5ZM159.866 146.5V175.345H161.866V146.5H159.866ZM159.866 175.345C159.866 179.885 158.239 183.783 154.95 187.088L156.367 188.498C160.02 184.828 161.866 180.427 161.866 175.345H159.866ZM154.95 187.088C151.68 190.373 147.785 192 143.21 192V194C148.323 194 152.727 192.156 156.367 188.498L154.95 187.088ZM143.21 192H129.866V194H143.21V192ZM130.866 193V191.353H128.866V193H130.866ZM129.382 190.478C127.58 191.474 125.311 192 122.527 192V194C125.556 194 128.18 193.428 130.349 192.228L129.382 190.478ZM122.527 192H109.183V194H122.527V192ZM110.183 193V146.5H108.183V193H110.183Z" fill="white" mask="url(#path-10-outside-4_1244_16859)"/>
</svg>
