<svg width="26" height="30" viewBox="0 0 26 30" fill="none" xmlns="http://www.w3.org/2000/svg">
<path d="M20.9997 9.66699C20.9997 7.54526 20.1568 5.51043 18.6566 4.01014C17.1563 2.50985 15.1214 1.66699 12.9997 1.66699C10.878 1.66699 8.84314 2.50985 7.34284 4.01014C5.84255 5.51043 4.9997 7.54526 4.9997 9.66699C4.9997 13.7872 3.96033 16.6083 2.79925 18.4742C1.81987 20.0482 1.33018 20.8351 1.34813 21.0547C1.36801 21.2978 1.41951 21.3905 1.6154 21.5358C1.79231 21.667 2.58982 21.667 4.18484 21.667H21.8146C23.4096 21.667 24.2071 21.667 24.384 21.5358C24.5799 21.3905 24.6314 21.2978 24.6513 21.0547C24.6692 20.8351 24.1795 20.0482 23.2001 18.4742C22.0391 16.6083 20.9997 13.7872 20.9997 9.66699Z" fill="#667085"/>
<path d="M9.47193 27.0003C10.4121 27.8301 11.6471 28.3337 12.9997 28.3337C14.3523 28.3337 15.5873 27.8301 16.5275 27.0003M20.9997 9.66699C20.9997 7.54526 20.1568 5.51043 18.6566 4.01014C17.1563 2.50985 15.1214 1.66699 12.9997 1.66699C10.878 1.66699 8.84314 2.50985 7.34284 4.01014C5.84255 5.51043 4.9997 7.54526 4.9997 9.66699C4.9997 13.7872 3.96033 16.6083 2.79925 18.4742C1.81987 20.0482 1.33018 20.8351 1.34813 21.0547C1.36801 21.2978 1.41951 21.3905 1.6154 21.5358C1.79231 21.667 2.58982 21.667 4.18484 21.667H21.8146C23.4096 21.667 24.2071 21.667 24.384 21.5358C24.5799 21.3905 24.6314 21.2978 24.6513 21.0547C24.6692 20.8351 24.1795 20.0482 23.2001 18.4742C22.0391 16.6083 20.9997 13.7872 20.9997 9.66699Z" stroke="#667085" stroke-width="2" stroke-linecap="round" stroke-linejoin="round"/>
</svg>
