<svg width="37" height="36" viewBox="0 0 37 36" fill="none" xmlns="http://www.w3.org/2000/svg">
<rect x="0.5" width="36" height="36" rx="8" fill="#F0FDF9"/>
<path d="M26 16.3337H11M21.8333 9.66699V13.0003M15.1667 9.66699V13.0003M15 26.3337H22C23.4001 26.3337 24.1002 26.3337 24.635 26.0612C25.1054 25.8215 25.4878 25.439 25.7275 24.9686C26 24.4339 26 23.7338 26 22.3337V15.3337C26 13.9335 26 13.2335 25.7275 12.6987C25.4878 12.2283 25.1054 11.8458 24.635 11.6061C24.1002 11.3337 23.4001 11.3337 22 11.3337H15C13.5999 11.3337 12.8998 11.3337 12.365 11.6061C11.8946 11.8458 11.5122 12.2283 11.2725 12.6987C11 13.2335 11 13.9335 11 15.3337V22.3337C11 23.7338 11 24.4339 11.2725 24.9686C11.5122 25.439 11.8946 25.8215 12.365 26.0612C12.8998 26.3337 13.5999 26.3337 15 26.3337Z" stroke="#107569" stroke-width="1.66667" stroke-linecap="round" stroke-linejoin="round"/>
</svg>
