<svg width="141" height="126" viewBox="0 0 141 126" fill="none" xmlns="http://www.w3.org/2000/svg">
<mask id="path-1-inside-1_1244_16798" fill="white">
<path fill-rule="evenodd" clip-rule="evenodd" d="M140.933 30.3C140.933 46.198 128.526 59.2363 112.747 60.4997V111.605V112.11H112.719C111.905 119.406 93.5246 125.24 70.97 125.24C48.4154 125.24 30.0354 119.406 29.2215 112.11H29.1933V111.605V60.564C12.9378 59.7871 0 46.5346 0 30.3C0 13.5658 13.7464 0 30.7033 0C38.4061 0 45.4464 2.79928 50.8367 7.42323C56.2269 2.79928 63.2672 0 70.97 0C78.4353 0 85.2783 2.6293 90.6 7.0007C95.9217 2.6293 102.765 0 110.23 0C127.187 0 140.933 13.5658 140.933 30.3Z"/>
</mask>
<path fill-rule="evenodd" clip-rule="evenodd" d="M140.933 30.3C140.933 46.198 128.526 59.2363 112.747 60.4997V111.605V112.11H112.719C111.905 119.406 93.5246 125.24 70.97 125.24C48.4154 125.24 30.0354 119.406 29.2215 112.11H29.1933V111.605V60.564C12.9378 59.7871 0 46.5346 0 30.3C0 13.5658 13.7464 0 30.7033 0C38.4061 0 45.4464 2.79928 50.8367 7.42323C56.2269 2.79928 63.2672 0 70.97 0C78.4353 0 85.2783 2.6293 90.6 7.0007C95.9217 2.6293 102.765 0 110.23 0C127.187 0 140.933 13.5658 140.933 30.3Z" fill="white"/>
<path d="M112.747 60.4997L112.427 56.5124L108.747 56.8071V60.4997H112.747ZM112.747 112.11V116.11H116.747V112.11H112.747ZM112.719 112.11V108.11H109.14L108.743 111.667L112.719 112.11ZM29.2215 112.11L33.1968 111.667L32.8001 108.11H29.2215V112.11ZM29.1933 112.11H25.1933V116.11H29.1933V112.11ZM29.1933 60.564H33.1933V56.7506L29.3843 56.5686L29.1933 60.564ZM50.8367 7.42323L48.2323 10.4592L50.8367 12.6934L53.4411 10.4592L50.8367 7.42323ZM90.6 7.0007L88.0611 10.0916L90.6 12.1772L93.139 10.0916L90.6 7.0007ZM113.066 64.4869C130.863 63.062 144.933 48.3441 144.933 30.3H136.933C136.933 44.0519 126.19 55.4106 112.427 56.5124L113.066 64.4869ZM116.747 111.605V60.4997H108.747V111.605H116.747ZM116.747 112.11V111.605H108.747V112.11H116.747ZM112.719 116.11H112.747V108.11H112.719V116.11ZM108.743 111.667C108.722 111.852 108.486 112.701 106.69 113.991C104.971 115.226 102.328 116.482 98.7939 117.596C91.7583 119.815 81.9474 121.24 70.97 121.24V129.24C82.5473 129.24 93.2036 127.748 101.2 125.226C105.182 123.97 108.697 122.399 111.357 120.489C113.942 118.632 116.308 116.016 116.694 112.553L108.743 111.667ZM70.97 121.24C59.9927 121.24 50.1817 119.815 43.1461 117.596C39.6115 116.482 36.9692 115.226 35.2498 113.991C33.4541 112.701 33.2175 111.852 33.1968 111.667L25.2461 112.553C25.6324 116.016 27.9985 118.632 30.5828 120.489C33.2434 122.399 36.7584 123.97 40.7399 125.226C48.7364 127.748 59.3927 129.24 70.97 129.24V121.24ZM29.1933 116.11H29.2215V108.11H29.1933V116.11ZM25.1933 111.605V112.11H33.1933V111.605H25.1933ZM25.1933 60.564V111.605H33.1933V60.564H25.1933ZM-4 30.3C-4 48.726 10.6713 63.6833 29.0024 64.5594L29.3843 56.5686C15.2042 55.8909 4 44.3431 4 30.3H-4ZM30.7033 -4C11.5872 -4 -4 11.3069 -4 30.3H4C4 15.8246 15.9055 4 30.7033 4V-4ZM53.4411 4.38726C47.3487 -0.838991 39.3915 -4 30.7033 -4V4C37.4208 4 43.5442 6.43754 48.2323 10.4592L53.4411 4.38726ZM70.97 -4C62.2819 -4 54.3246 -0.838991 48.2323 4.38726L53.4411 10.4592C58.1292 6.43754 64.2525 4 70.97 4V-4ZM93.139 3.90979C87.1239 -1.03111 79.3897 -4 70.97 -4V4C77.4808 4 83.4326 6.2897 88.0611 10.0916L93.139 3.90979ZM110.23 -4C101.81 -4 94.0761 -1.03111 88.0611 3.90979L93.139 10.0916C97.7674 6.2897 103.719 4 110.23 4V-4ZM144.933 30.3C144.933 11.3069 129.346 -4 110.23 -4V4C125.028 4 136.933 15.8246 136.933 30.3H144.933Z" fill="#107569" mask="url(#path-1-inside-1_1244_16798)"/>
</svg>
