<svg width="145" height="142" viewBox="0 0 145 142" fill="none" xmlns="http://www.w3.org/2000/svg">
<mask id="path-1-inside-1_1244_16808" fill="white">
<path fill-rule="evenodd" clip-rule="evenodd" d="M144.235 42.7336C144.235 58.6316 131.828 71.6699 116.048 72.9333V124.039V124.544H116.02C115.206 131.84 96.8261 137.674 74.2715 137.674C51.7169 137.674 33.3369 131.84 32.523 124.544H32.4949V124.039V72.9976C16.2393 72.2207 3.30151 58.9682 3.30151 42.7336C3.30151 25.9994 17.0479 12.4336 34.0048 12.4336C41.7077 12.4336 48.748 15.2329 54.1382 19.8568C59.5284 15.2329 66.5687 12.4336 74.2715 12.4336C81.7368 12.4336 88.5798 15.0629 93.9015 19.4343C99.2232 15.0629 106.066 12.4336 113.532 12.4336C130.489 12.4336 144.235 25.9994 144.235 42.7336Z"/>
</mask>
<path fill-rule="evenodd" clip-rule="evenodd" d="M144.235 42.7336C144.235 58.6316 131.828 71.6699 116.048 72.9333V124.039V124.544H116.02C115.206 131.84 96.8261 137.674 74.2715 137.674C51.7169 137.674 33.3369 131.84 32.523 124.544H32.4949V124.039V72.9976C16.2393 72.2207 3.30151 58.9682 3.30151 42.7336C3.30151 25.9994 17.0479 12.4336 34.0048 12.4336C41.7077 12.4336 48.748 15.2329 54.1382 19.8568C59.5284 15.2329 66.5687 12.4336 74.2715 12.4336C81.7368 12.4336 88.5798 15.0629 93.9015 19.4343C99.2232 15.0629 106.066 12.4336 113.532 12.4336C130.489 12.4336 144.235 25.9994 144.235 42.7336Z" fill="white"/>
<path d="M116.048 72.9333L115.729 68.946L112.048 69.2407V72.9333H116.048ZM116.048 124.544V128.544H120.048V124.544H116.048ZM116.02 124.544V120.544H112.441L112.045 124.1L116.02 124.544ZM32.523 124.544L36.4983 124.1L36.1016 120.544H32.523V124.544ZM32.4949 124.544H28.4949V128.544H32.4949V124.544ZM32.4949 72.9976H36.4949V69.1842L32.6858 69.0021L32.4949 72.9976ZM54.1382 19.8568L51.5338 22.8928L54.1382 25.127L56.7426 22.8928L54.1382 19.8568ZM93.9015 19.4343L91.3626 22.5252L93.9015 24.6108L96.4405 22.5252L93.9015 19.4343ZM116.367 76.9205C134.165 75.4956 148.235 60.7777 148.235 42.7336H140.235C140.235 56.4855 129.491 67.8442 115.729 68.946L116.367 76.9205ZM120.048 124.039V72.9333H112.048V124.039H120.048ZM120.048 124.544V124.039H112.048V124.544H120.048ZM116.02 128.544H116.048V120.544H116.02V128.544ZM112.045 124.1C112.024 124.286 111.787 125.135 109.992 126.424C108.272 127.659 105.63 128.915 102.095 130.03C95.0598 132.249 85.2489 133.674 74.2715 133.674V141.674C85.8488 141.674 96.5051 140.182 104.502 137.66C108.483 136.404 111.998 134.833 114.659 132.922C117.243 131.066 119.609 128.45 119.995 124.987L112.045 124.1ZM74.2715 133.674C63.2942 133.674 53.4832 132.249 46.4476 130.03C42.913 128.915 40.2708 127.659 38.5513 126.424C36.7556 125.135 36.519 124.286 36.4983 124.1L28.5476 124.987C28.9339 128.45 31.3 131.066 33.8844 132.922C36.5449 134.833 40.0599 136.404 44.0414 137.66C52.0379 140.182 62.6943 141.674 74.2715 141.674V133.674ZM32.4949 128.544H32.523V120.544H32.4949V128.544ZM28.4949 124.039V124.544H36.4949V124.039H28.4949ZM28.4949 72.9976V124.039H36.4949V72.9976H28.4949ZM-0.698486 42.7336C-0.698486 61.1596 13.9728 76.1169 32.3039 76.993L32.6858 69.0021C18.5058 68.3245 7.30151 56.7767 7.30151 42.7336H-0.698486ZM34.0048 8.43359C14.8888 8.43359 -0.698486 23.7405 -0.698486 42.7336H7.30151C7.30151 28.2582 19.207 16.4336 34.0048 16.4336V8.43359ZM56.7426 16.8209C50.6502 11.5946 42.693 8.43359 34.0048 8.43359V16.4336C40.7223 16.4336 46.8457 18.8711 51.5338 22.8928L56.7426 16.8209ZM74.2715 8.43359C65.5834 8.43359 57.6261 11.5946 51.5338 16.8209L56.7426 22.8928C61.4307 18.8711 67.554 16.4336 74.2715 16.4336V8.43359ZM96.4405 16.3434C90.4254 11.4025 82.6912 8.43359 74.2715 8.43359V16.4336C80.7823 16.4336 86.7341 18.7233 91.3626 22.5252L96.4405 16.3434ZM113.532 8.43359C105.112 8.43359 97.3776 11.4025 91.3626 16.3434L96.4405 22.5252C101.069 18.7233 107.021 16.4336 113.532 16.4336V8.43359ZM148.235 42.7336C148.235 23.7405 132.648 8.43359 113.532 8.43359V16.4336C128.329 16.4336 140.235 28.2582 140.235 42.7336H148.235Z" fill="#107569" mask="url(#path-1-inside-1_1244_16808)"/>
<mask id="path-3-outside-2_1244_16808" maskUnits="userSpaceOnUse" x="5" y="15" width="57" height="56" fill="black">
<rect fill="white" x="5" y="15" width="57" height="56"/>
<path d="M6.2168 42.7363C6.2168 39.0397 6.91406 35.5977 8.30859 32.4102C9.70312 29.2005 11.7174 26.4225 14.3516 24.0762C17.0078 21.7077 20.2396 19.8483 24.0469 18.498C27.8763 17.1478 32.2038 16.4727 37.0293 16.4727C41.2572 16.4727 45.1309 16.9043 48.6504 17.7676C52.1921 18.6087 55.4792 19.9036 58.5117 21.6523L53.6641 29.6211C52.7565 29.0234 51.7051 28.4922 50.5098 28.0273C49.3366 27.5625 48.0749 27.1751 46.7246 26.8652C45.3965 26.5332 44.013 26.2786 42.5742 26.1016C41.1576 25.9245 39.752 25.8359 38.3574 25.8359C34.9928 25.8359 31.9935 26.2565 29.3594 27.0977C26.7253 27.9167 24.5007 29.0788 22.6855 30.584C20.8926 32.0671 19.5202 33.849 18.5684 35.9297C17.6387 37.9883 17.1738 40.2572 17.1738 42.7363C17.1738 45.304 17.6608 47.6615 18.6348 49.8086C19.6087 51.9557 21.0143 53.8151 22.8516 55.3867C24.7109 56.9362 26.9688 58.1536 29.625 59.0391C32.3034 59.9023 35.3249 60.334 38.6895 60.334C40.2168 60.334 41.7331 60.2233 43.2383 60.002C44.7435 59.7806 46.1934 59.4818 47.5879 59.1055C49.0046 58.707 50.3659 58.2422 51.6719 57.7109C52.9779 57.1576 54.1953 56.5599 55.3242 55.918L60.1719 63.8867C57.3385 65.7018 54.0625 67.1296 50.3438 68.1699C46.625 69.1882 42.6738 69.6973 38.4902 69.6973C33.1556 69.6973 28.474 69.0111 24.4453 67.6387C20.4167 66.2441 17.0521 64.3405 14.3516 61.9277C11.651 59.4928 9.61458 56.6374 8.24219 53.3613C6.89193 50.0632 6.2168 46.5215 6.2168 42.7363Z"/>
</mask>
<path d="M6.2168 42.7363C6.2168 39.0397 6.91406 35.5977 8.30859 32.4102C9.70312 29.2005 11.7174 26.4225 14.3516 24.0762C17.0078 21.7077 20.2396 19.8483 24.0469 18.498C27.8763 17.1478 32.2038 16.4727 37.0293 16.4727C41.2572 16.4727 45.1309 16.9043 48.6504 17.7676C52.1921 18.6087 55.4792 19.9036 58.5117 21.6523L53.6641 29.6211C52.7565 29.0234 51.7051 28.4922 50.5098 28.0273C49.3366 27.5625 48.0749 27.1751 46.7246 26.8652C45.3965 26.5332 44.013 26.2786 42.5742 26.1016C41.1576 25.9245 39.752 25.8359 38.3574 25.8359C34.9928 25.8359 31.9935 26.2565 29.3594 27.0977C26.7253 27.9167 24.5007 29.0788 22.6855 30.584C20.8926 32.0671 19.5202 33.849 18.5684 35.9297C17.6387 37.9883 17.1738 40.2572 17.1738 42.7363C17.1738 45.304 17.6608 47.6615 18.6348 49.8086C19.6087 51.9557 21.0143 53.8151 22.8516 55.3867C24.7109 56.9362 26.9688 58.1536 29.625 59.0391C32.3034 59.9023 35.3249 60.334 38.6895 60.334C40.2168 60.334 41.7331 60.2233 43.2383 60.002C44.7435 59.7806 46.1934 59.4818 47.5879 59.1055C49.0046 58.707 50.3659 58.2422 51.6719 57.7109C52.9779 57.1576 54.1953 56.5599 55.3242 55.918L60.1719 63.8867C57.3385 65.7018 54.0625 67.1296 50.3438 68.1699C46.625 69.1882 42.6738 69.6973 38.4902 69.6973C33.1556 69.6973 28.474 69.0111 24.4453 67.6387C20.4167 66.2441 17.0521 64.3405 14.3516 61.9277C11.651 59.4928 9.61458 56.6374 8.24219 53.3613C6.89193 50.0632 6.2168 46.5215 6.2168 42.7363Z" fill="#107569"/>
<path d="M8.30859 32.4102L9.22475 32.811L9.22576 32.8087L8.30859 32.4102ZM14.3516 24.0762L15.0167 24.8229L15.0171 24.8226L14.3516 24.0762ZM24.0469 18.498L23.7143 17.555L23.7126 17.5556L24.0469 18.498ZM48.6504 17.7676L48.4122 18.7388L48.4193 18.7405L48.6504 17.7676ZM58.5117 21.6523L59.3661 22.1721L59.8981 21.2975L59.0113 20.7861L58.5117 21.6523ZM53.6641 29.6211L53.1141 30.4563L53.9797 31.0263L54.5184 30.1408L53.6641 29.6211ZM50.5098 28.0273L50.1414 28.957L50.1473 28.9593L50.5098 28.0273ZM46.7246 26.8652L46.4821 27.8354L46.4915 27.8377L46.5009 27.8399L46.7246 26.8652ZM42.5742 26.1016L42.4502 27.0938L42.4521 27.0941L42.5742 26.1016ZM29.3594 27.0977L29.6563 28.0526L29.6636 28.0503L29.3594 27.0977ZM22.6855 30.584L23.3229 31.3545L23.3239 31.3537L22.6855 30.584ZM18.5684 35.9297L17.659 35.5137L17.657 35.5181L18.5684 35.9297ZM18.6348 49.8086L17.7241 50.2217L18.6348 49.8086ZM22.8516 55.3867L22.2015 56.1467L22.2114 56.1549L22.8516 55.3867ZM29.625 59.0391L29.3088 59.9878L29.3182 59.9908L29.625 59.0391ZM47.5879 59.1055L47.8484 60.071L47.8586 60.0681L47.5879 59.1055ZM51.6719 57.7109L52.0487 58.6372L52.0554 58.6345L52.062 58.6317L51.6719 57.7109ZM55.3242 55.918L56.1786 55.3982L55.6739 54.5687L54.8299 55.0487L55.3242 55.918ZM60.1719 63.8867L60.7113 64.7288L61.534 64.2017L61.0262 63.367L60.1719 63.8867ZM50.3438 68.1699L50.6078 69.1344L50.6132 69.1329L50.3438 68.1699ZM24.4453 67.6387L24.1182 68.5837L24.1229 68.5853L24.4453 67.6387ZM14.3516 61.9277L13.6819 62.6704L13.6853 62.6735L14.3516 61.9277ZM8.24219 53.3613L7.31671 53.7402L7.31985 53.7477L8.24219 53.3613ZM7.2168 42.7363C7.2168 39.1689 7.88892 35.8643 9.22475 32.811L7.39244 32.0093C5.9392 35.331 5.2168 38.9105 5.2168 42.7363H7.2168ZM9.22576 32.8087C10.562 29.7331 12.49 27.0736 15.0167 24.8229L13.6864 23.3295C10.9449 25.7714 8.84421 28.668 7.39142 32.0117L9.22576 32.8087ZM15.0171 24.8226C17.5645 22.5511 20.6795 20.7533 24.3811 19.4405L23.7126 17.5556C19.7996 18.9433 16.4512 20.8642 13.686 23.3298L15.0171 24.8226ZM24.3794 19.4411C28.084 18.1349 32.2963 17.4727 37.0293 17.4727V15.4727C32.1113 15.4727 27.6686 16.1607 23.7143 17.555L24.3794 19.4411ZM37.0293 17.4727C41.1899 17.4727 44.9823 17.8975 48.4122 18.7388L48.8886 16.7964C45.2795 15.9111 41.3245 15.4727 37.0293 15.4727V17.4727ZM48.4193 18.7405C51.8706 19.5602 55.0668 20.8202 58.0122 22.5186L59.0113 20.7861C55.8916 18.9871 52.5135 17.6573 48.8815 16.7946L48.4193 18.7405ZM57.6574 21.1326L52.8097 29.1014L54.5184 30.1408L59.3661 22.1721L57.6574 21.1326ZM54.2141 28.7859C53.2382 28.1433 52.1219 27.5813 50.8722 27.0953L50.1473 28.9593C51.2883 29.4031 52.2749 29.9036 53.1141 30.4563L54.2141 28.7859ZM50.8781 27.0977C49.6536 26.6125 48.3431 26.2107 46.9483 25.8906L46.5009 27.8399C47.8066 28.1396 49.0195 28.5125 50.1414 28.957L50.8781 27.0977ZM46.9671 25.8951C45.5971 25.5526 44.1734 25.2908 42.6964 25.1091L42.4521 27.0941C43.8527 27.2665 45.1958 27.5138 46.4821 27.8354L46.9671 25.8951ZM42.6983 25.1093C41.2414 24.9272 39.7944 24.8359 38.3574 24.8359V26.8359C39.7095 26.8359 41.0737 26.9218 42.4502 27.0938L42.6983 25.1093ZM38.3574 24.8359C34.9112 24.8359 31.8063 25.2665 29.0552 26.145L29.6636 28.0503C32.1807 27.2465 35.0745 26.8359 38.3574 26.8359V24.8359ZM29.0625 26.1427C26.3244 26.9941 23.9785 28.2127 22.0472 29.8142L23.3239 31.3537C25.0228 29.9449 27.1261 28.8393 29.6563 28.0526L29.0625 26.1427ZM22.0482 29.8134C20.141 31.391 18.6747 33.2934 17.659 35.5137L19.4777 36.3457C20.3657 34.4045 21.6442 32.7431 23.3229 31.3545L22.0482 29.8134ZM17.657 35.5181C16.6634 37.7182 16.1738 40.1292 16.1738 42.7363H18.1738C18.1738 40.3851 18.614 38.2584 19.4797 36.3413L17.657 35.5181ZM16.1738 42.7363C16.1738 45.4337 16.6862 47.9336 17.7241 50.2217L19.5455 49.3955C18.6354 47.3893 18.1738 45.1744 18.1738 42.7363H16.1738ZM17.7241 50.2217C18.7601 52.5056 20.256 54.4824 22.2015 56.1466L23.5016 54.6268C21.7727 53.1478 20.4574 51.4059 19.5455 49.3955L17.7241 50.2217ZM22.2114 56.1549C24.1803 57.7957 26.5525 59.069 29.3088 59.9877L29.9412 58.0904C27.385 57.2383 25.2416 56.0767 23.4917 54.6185L22.2114 56.1549ZM29.3182 59.9908C32.1129 60.8916 35.2405 61.334 38.6895 61.334V59.334C35.4093 59.334 32.4938 58.9131 29.9318 58.0873L29.3182 59.9908ZM38.6895 61.334C40.2653 61.334 41.8302 61.2198 43.3838 60.9913L43.0928 59.0126C41.6359 59.2268 40.1683 59.334 38.6895 59.334V61.334ZM43.3838 60.9913C44.9257 60.7646 46.4141 60.458 47.8484 60.0709L47.3274 58.14C45.9726 58.5056 44.5613 58.7966 43.0928 59.0126L43.3838 60.9913ZM47.8586 60.0681C49.3097 59.66 50.7066 59.1832 52.0487 58.6372L51.2951 56.7846C50.0252 57.3012 48.6994 57.7541 47.3171 58.1428L47.8586 60.0681ZM52.062 58.6317C53.4005 58.0645 54.653 57.45 55.8185 56.7873L54.8299 55.0487C53.7376 55.6698 52.5553 56.2506 51.2817 56.7902L52.062 58.6317ZM54.4699 56.4377L59.3175 64.4064L61.0262 63.367L56.1786 55.3982L54.4699 56.4377ZM59.6324 63.0447C56.8939 64.7991 53.7114 66.1894 50.0743 67.2069L50.6132 69.1329C54.4136 68.0697 57.7832 66.6046 60.7113 64.7288L59.6324 63.0447ZM50.0797 67.2054C46.4539 68.1982 42.5921 68.6973 38.4902 68.6973V70.6973C42.7555 70.6973 46.7961 70.1781 50.6078 69.1344L50.0797 67.2054ZM38.4902 68.6973C33.2387 68.6973 28.6701 68.0215 24.7678 66.6921L24.1229 68.5853C28.2778 70.0007 33.0725 70.6973 38.4902 70.6973V68.6973ZM24.7724 66.6937C20.8471 65.3349 17.6037 63.4924 15.0178 61.182L13.6853 62.6735C16.5004 65.1886 19.9863 67.1534 24.1182 68.5837L24.7724 66.6937ZM15.0212 61.185C12.4275 58.8464 10.4786 56.1118 9.16453 52.9749L7.31985 53.7477C8.75057 57.163 10.8746 60.1392 13.6819 62.6704L15.0212 61.185ZM9.16764 52.9825C7.86961 49.8119 7.2168 46.3997 7.2168 42.7363H5.2168C5.2168 46.6432 5.91425 50.3144 7.31674 53.7402L9.16764 52.9825Z" fill="white" mask="url(#path-3-outside-2_1244_16808)"/>
<mask id="path-5-outside-3_1244_16808" maskUnits="userSpaceOnUse" x="51" y="43" width="47" height="40" fill="black">
<rect fill="white" x="51" y="43" width="47" height="40"/>
<path d="M52.4512 63.1387C52.4512 60.5755 52.9658 58.1738 53.9951 55.9336C55.0446 53.6934 56.528 51.7357 58.4453 50.0605C60.3828 48.3854 62.7139 47.0635 65.4385 46.0947C68.1833 45.126 71.2611 44.6416 74.6719 44.6416C78.0827 44.6416 81.1504 45.126 83.875 46.0947C86.6198 47.0635 88.9508 48.3854 90.8682 50.0605C92.8057 51.7357 94.2891 53.6934 95.3184 55.9336C96.3678 58.1738 96.8926 60.5755 96.8926 63.1387C96.8926 65.7018 96.3678 68.1035 95.3184 70.3438C94.2891 72.584 92.8057 74.5417 90.8682 76.2168C88.9508 77.8919 86.6198 79.2139 83.875 80.1826C81.1504 81.1514 78.0827 81.6357 74.6719 81.6357C71.2611 81.6357 68.1833 81.1514 65.4385 80.1826C62.7139 79.2139 60.3828 77.8919 58.4453 76.2168C56.528 74.5417 55.0446 72.584 53.9951 70.3438C52.9658 68.1035 52.4512 65.7018 52.4512 63.1387ZM61.8662 63.1387C61.8662 64.5716 62.1488 65.9339 62.7139 67.2256C63.2992 68.4971 64.1367 69.6273 65.2266 70.6162C66.3366 71.585 67.6787 72.362 69.2529 72.9473C70.8473 73.5124 72.6536 73.7949 74.6719 73.7949C76.6901 73.7949 78.4863 73.5124 80.0605 72.9473C81.6549 72.362 82.9971 71.585 84.0869 70.6162C85.1969 69.6273 86.0345 68.4971 86.5996 67.2256C87.1849 65.9339 87.4775 64.5716 87.4775 63.1387C87.4775 61.7057 87.1849 60.3434 86.5996 59.0518C86.0345 57.7601 85.1969 56.6299 84.0869 55.6611C82.9971 54.6722 81.6549 53.8952 80.0605 53.3301C78.4863 52.7448 76.6901 52.4521 74.6719 52.4521C72.6536 52.4521 70.8473 52.7448 69.2529 53.3301C67.6787 53.8952 66.3366 54.6722 65.2266 55.6611C64.1367 56.6299 63.2992 57.7601 62.7139 59.0518C62.1488 60.3434 61.8662 61.7057 61.8662 63.1387Z"/>
</mask>
<path d="M52.4512 63.1387C52.4512 60.5755 52.9658 58.1738 53.9951 55.9336C55.0446 53.6934 56.528 51.7357 58.4453 50.0605C60.3828 48.3854 62.7139 47.0635 65.4385 46.0947C68.1833 45.126 71.2611 44.6416 74.6719 44.6416C78.0827 44.6416 81.1504 45.126 83.875 46.0947C86.6198 47.0635 88.9508 48.3854 90.8682 50.0605C92.8057 51.7357 94.2891 53.6934 95.3184 55.9336C96.3678 58.1738 96.8926 60.5755 96.8926 63.1387C96.8926 65.7018 96.3678 68.1035 95.3184 70.3438C94.2891 72.584 92.8057 74.5417 90.8682 76.2168C88.9508 77.8919 86.6198 79.2139 83.875 80.1826C81.1504 81.1514 78.0827 81.6357 74.6719 81.6357C71.2611 81.6357 68.1833 81.1514 65.4385 80.1826C62.7139 79.2139 60.3828 77.8919 58.4453 76.2168C56.528 74.5417 55.0446 72.584 53.9951 70.3438C52.9658 68.1035 52.4512 65.7018 52.4512 63.1387ZM61.8662 63.1387C61.8662 64.5716 62.1488 65.9339 62.7139 67.2256C63.2992 68.4971 64.1367 69.6273 65.2266 70.6162C66.3366 71.585 67.6787 72.362 69.2529 72.9473C70.8473 73.5124 72.6536 73.7949 74.6719 73.7949C76.6901 73.7949 78.4863 73.5124 80.0605 72.9473C81.6549 72.362 82.9971 71.585 84.0869 70.6162C85.1969 69.6273 86.0345 68.4971 86.5996 67.2256C87.1849 65.9339 87.4775 64.5716 87.4775 63.1387C87.4775 61.7057 87.1849 60.3434 86.5996 59.0518C86.0345 57.7601 85.1969 56.6299 84.0869 55.6611C82.9971 54.6722 81.6549 53.8952 80.0605 53.3301C78.4863 52.7448 76.6901 52.4521 74.6719 52.4521C72.6536 52.4521 70.8473 52.7448 69.2529 53.3301C67.6787 53.8952 66.3366 54.6722 65.2266 55.6611C64.1367 56.6299 63.2992 57.7601 62.7139 59.0518C62.1488 60.3434 61.8662 61.7057 61.8662 63.1387Z" fill="#107569"/>
<path d="M53.9951 55.9336L53.0895 55.5094L53.0864 55.5161L53.9951 55.9336ZM58.4453 50.0605L57.7913 49.3041L57.7874 49.3075L58.4453 50.0605ZM65.4385 46.0947L65.1057 45.1517L65.1035 45.1525L65.4385 46.0947ZM83.875 46.0947L83.54 47.0369L83.5422 47.0377L83.875 46.0947ZM90.8682 50.0605L90.2102 50.8136L90.2141 50.817L90.8682 50.0605ZM95.3184 55.9336L94.4097 56.3511L94.4128 56.3578L95.3184 55.9336ZM95.3184 70.3438L94.4128 69.9195L94.4097 69.9262L95.3184 70.3438ZM90.8682 76.2168L90.2141 75.4603L90.2102 75.4637L90.8682 76.2168ZM83.875 80.1826L83.5422 79.2396L83.54 79.2404L83.875 80.1826ZM65.4385 80.1826L65.1035 81.1248L65.1057 81.1256L65.4385 80.1826ZM58.4453 76.2168L57.7874 76.9699L57.7913 76.9733L58.4453 76.2168ZM53.9951 70.3438L53.0864 70.7613L53.0896 70.768L53.9951 70.3438ZM62.7139 67.2256L61.7977 67.6264L61.8015 67.6351L61.8055 67.6437L62.7139 67.2256ZM65.2266 70.6162L64.5546 71.3568L64.5617 71.3633L64.569 71.3696L65.2266 70.6162ZM69.2529 72.9473L68.9044 73.8846L68.9116 73.8873L68.9189 73.8898L69.2529 72.9473ZM80.0605 72.9473L80.3984 73.8885L80.4052 73.886L80.0605 72.9473ZM84.0869 70.6162L84.7513 71.3636L84.7521 71.3629L84.0869 70.6162ZM86.5996 67.2256L85.6887 66.8128L85.6858 66.8194L86.5996 67.2256ZM86.5996 59.0518L85.6834 59.4526L85.6888 59.4645L86.5996 59.0518ZM84.0869 55.6611L83.4149 56.4017L83.4221 56.4082L83.4294 56.4146L84.0869 55.6611ZM80.0605 53.3301L79.7121 54.2674L79.7192 54.2701L79.7265 54.2726L80.0605 53.3301ZM69.2529 53.3301L69.5908 54.2713L69.5975 54.2688L69.2529 53.3301ZM65.2266 55.6611L65.8909 56.4085L65.8918 56.4078L65.2266 55.6611ZM62.7139 59.0518L61.8029 58.639L61.7977 58.6509L62.7139 59.0518ZM53.4512 63.1387C53.4512 60.7138 53.9371 58.4551 54.9038 56.3511L53.0864 55.5161C51.9946 57.8925 51.4512 60.4373 51.4512 63.1387H53.4512ZM54.9007 56.3578C55.8896 54.2469 57.2873 52.4002 59.1033 50.8136L57.7874 49.3075C55.7687 51.0711 54.1996 53.1398 53.0896 55.5094L54.9007 56.3578ZM59.0993 50.817C60.9316 49.2329 63.1508 47.9694 65.7735 47.0369L65.1035 45.1525C62.2769 46.1575 59.834 47.538 57.7913 49.3041L59.0993 50.817ZM65.7713 47.0377C68.3926 46.1126 71.3554 45.6416 74.6719 45.6416V43.6416C71.1668 43.6416 67.974 44.1394 65.1057 45.1517L65.7713 47.0377ZM74.6719 45.6416C77.9885 45.6416 80.9403 46.1126 83.54 47.0369L84.21 45.1525C81.3605 44.1393 78.1768 43.6416 74.6719 43.6416V45.6416ZM83.5422 47.0377C86.1845 47.9703 88.4009 49.2329 90.2102 50.8136L91.5261 49.3075C89.5008 47.538 87.0551 46.1567 84.2078 45.1517L83.5422 47.0377ZM90.2141 50.817C92.0478 52.4024 93.4424 54.2458 94.4097 56.3511L96.227 55.5161C95.1357 53.1409 93.5635 51.069 91.5222 49.3041L90.2141 50.817ZM94.4128 56.3578C95.3978 58.4604 95.8926 60.7167 95.8926 63.1387H97.8926C97.8926 60.4343 97.3379 57.8872 96.2239 55.5094L94.4128 56.3578ZM95.8926 63.1387C95.8926 65.5606 95.3978 67.8169 94.4128 69.9195L96.2239 70.768C97.3379 68.3901 97.8926 65.843 97.8926 63.1387H95.8926ZM94.4097 69.9262C93.4424 72.0315 92.0478 73.875 90.2141 75.4603L91.5222 76.9733C93.5635 75.2084 95.1357 73.1365 96.227 70.7613L94.4097 69.9262ZM90.2102 75.4637C88.4009 77.0445 86.1845 78.307 83.5422 79.2396L84.2078 81.1256C87.0551 80.1207 89.5008 78.7394 91.5261 76.9699L90.2102 75.4637ZM83.54 79.2404C80.9403 80.1647 77.9885 80.6357 74.6719 80.6357V82.6357C78.1768 82.6357 81.3605 82.138 84.21 81.1248L83.54 79.2404ZM74.6719 80.6357C71.3554 80.6357 68.3926 80.1648 65.7713 79.2396L65.1057 81.1256C67.974 82.1379 71.1668 82.6357 74.6719 82.6357V80.6357ZM65.7735 79.2404C63.1508 78.3079 60.9316 77.0445 59.0993 75.4603L57.7913 76.9733C59.834 78.7394 62.2769 80.1198 65.1035 81.1248L65.7735 79.2404ZM59.1033 75.4637C57.2873 73.8771 55.8896 72.0305 54.9007 69.9195L53.0896 70.768C54.1996 73.1375 55.7687 75.2062 57.7874 76.9699L59.1033 75.4637ZM54.9038 69.9262C53.9371 67.8222 53.4512 65.5636 53.4512 63.1387H51.4512C51.4512 65.8401 51.9946 68.3848 53.0864 70.7613L54.9038 69.9262ZM60.8662 63.1387C60.8662 64.7073 61.1764 66.2062 61.7977 67.6264L63.63 66.8248C63.1211 65.6616 62.8662 64.436 62.8662 63.1387H60.8662ZM61.8055 67.6437C62.4499 69.0437 63.3702 70.2821 64.5546 71.3568L65.8986 69.8757C64.9032 68.9725 64.1484 67.9504 63.6222 66.8074L61.8055 67.6437ZM64.569 71.3696C65.7819 72.4282 67.2326 73.263 68.9044 73.8846L69.6014 72.01C68.1248 71.461 66.8913 70.7418 65.8841 69.8628L64.569 71.3696ZM68.9189 73.8898C70.639 74.4995 72.5612 74.7949 74.6719 74.7949V72.7949C72.7461 72.7949 71.0557 72.5253 69.587 72.0047L68.9189 73.8898ZM74.6719 74.7949C76.7822 74.7949 78.696 74.4996 80.3984 73.8885L79.7227 72.0061C78.2766 72.5252 76.598 72.7949 74.6719 72.7949V74.7949ZM80.4052 73.886C82.0981 73.2646 83.5537 72.4281 84.7513 71.3636L83.4226 69.8688C82.4404 70.7418 81.2118 71.4594 79.7159 72.0085L80.4052 73.886ZM84.7521 71.3629C85.9609 70.286 86.8867 69.0418 87.5134 67.6317L85.6858 66.8194C85.1823 67.9523 84.433 68.9686 83.4217 69.8696L84.7521 71.3629ZM87.5105 67.6383C88.1551 66.2156 88.4775 64.7124 88.4775 63.1387H86.4775C86.4775 64.4308 86.2147 65.6522 85.6888 66.8129L87.5105 67.6383ZM88.4775 63.1387C88.4775 61.5649 88.1551 60.0618 87.5105 58.639L85.6888 59.4645C86.2147 60.6251 86.4775 61.8465 86.4775 63.1387H88.4775ZM87.5158 58.6509C86.8889 57.218 85.9605 55.969 84.7444 54.9077L83.4294 56.4146C84.4334 57.2908 85.1802 58.3022 85.6835 59.4526L87.5158 58.6509ZM84.7589 54.9206C83.5573 53.8303 82.0954 52.9903 80.3946 52.3875L79.7265 54.2726C81.2145 54.8 82.4368 55.5141 83.4149 56.4017L84.7589 54.9206ZM80.409 52.3928C78.7033 51.7586 76.7857 51.4521 74.6719 51.4521V53.4521C76.5945 53.4521 78.2693 53.731 79.7121 54.2674L80.409 52.3928ZM74.6719 51.4521C72.5577 51.4521 70.6317 51.7587 68.9083 52.3913L69.5975 54.2688C71.063 53.7309 72.7496 53.4521 74.6719 53.4521V51.4521ZM68.9151 52.3889C67.2353 52.9919 65.7783 53.8303 64.5614 54.9145L65.8918 56.4078C66.8949 55.5141 68.1221 54.7985 69.5908 54.2713L68.9151 52.3889ZM64.5622 54.9137C63.3707 55.9728 62.4478 57.2161 61.803 58.639L63.6247 59.4645C64.1505 58.3041 64.9027 57.2869 65.8909 56.4085L64.5622 54.9137ZM61.7977 58.6509C61.1764 60.0711 60.8662 61.5701 60.8662 63.1387H62.8662C62.8662 61.8414 63.1211 60.6157 63.63 59.4526L61.7977 58.6509Z" fill="white" mask="url(#path-5-outside-3_1244_16808)"/>
<mask id="path-7-outside-4_1244_16808" maskUnits="userSpaceOnUse" x="48" y="86" width="54" height="49" fill="black">
<rect fill="white" x="48" y="86" width="54" height="49"/>
<path d="M49.1828 87.5H59.5V128.817H64.6828C66.1198 128.817 67.3388 128.309 68.3398 127.291C69.357 126.274 69.8656 125.071 69.8656 123.683V87.5H80.1828V128.817H85.3656C86.7703 128.817 87.9732 128.309 88.9742 127.291C89.9914 126.274 90.5 125.071 90.5 123.683V87.5H100.866V116.345C100.866 121.156 99.1299 125.305 95.6586 128.793C92.2034 132.264 88.0539 134 83.2102 134H69.8656V132.353C67.8797 133.451 65.4336 134 62.5273 134H49.1828V87.5Z"/>
</mask>
<path d="M49.1828 87.5H59.5V128.817H64.6828C66.1198 128.817 67.3388 128.309 68.3398 127.291C69.357 126.274 69.8656 125.071 69.8656 123.683V87.5H80.1828V128.817H85.3656C86.7703 128.817 87.9732 128.309 88.9742 127.291C89.9914 126.274 90.5 125.071 90.5 123.683V87.5H100.866V116.345C100.866 121.156 99.1299 125.305 95.6586 128.793C92.2034 132.264 88.0539 134 83.2102 134H69.8656V132.353C67.8797 133.451 65.4336 134 62.5273 134H49.1828V87.5Z" fill="#107569"/>
<path d="M49.1828 87.5V86.5H48.1828V87.5H49.1828ZM59.5 87.5H60.5V86.5H59.5V87.5ZM59.5 128.817H58.5V129.817H59.5V128.817ZM68.3398 127.291L67.6327 126.584L67.6271 126.59L68.3398 127.291ZM69.8656 87.5V86.5H68.8656V87.5H69.8656ZM80.1828 87.5H81.1828V86.5H80.1828V87.5ZM80.1828 128.817H79.1828V129.817H80.1828V128.817ZM88.9742 127.291L88.2671 126.584L88.2615 126.59L88.9742 127.291ZM90.5 87.5V86.5H89.5V87.5H90.5ZM100.866 87.5H101.866V86.5H100.866V87.5ZM95.6586 128.793L94.9498 128.088L94.9498 128.088L95.6586 128.793ZM69.8656 134H68.8656V135H69.8656V134ZM69.8656 132.353H70.8656V130.658L69.3818 131.478L69.8656 132.353ZM49.1828 134H48.1828V135H49.1828V134ZM49.1828 88.5H59.5V86.5H49.1828V88.5ZM58.5 87.5V128.817H60.5V87.5H58.5ZM59.5 129.817H64.6828V127.817H59.5V129.817ZM64.6828 129.817C66.3857 129.817 67.8621 129.203 69.0526 127.993L67.6271 126.59C66.8155 127.415 65.8539 127.817 64.6828 127.817V129.817ZM69.047 127.999C70.2441 126.801 70.8656 125.347 70.8656 123.683H68.8656C68.8656 124.796 68.4699 125.747 67.6327 126.584L69.047 127.999ZM70.8656 123.683V87.5H68.8656V123.683H70.8656ZM69.8656 88.5H80.1828V86.5H69.8656V88.5ZM79.1828 87.5V128.817H81.1828V87.5H79.1828ZM80.1828 129.817H85.3656V127.817H80.1828V129.817ZM85.3656 129.817C87.0431 129.817 88.5013 129.198 89.687 127.993L88.2615 126.59C87.445 127.42 86.4975 127.817 85.3656 127.817V129.817ZM89.6813 127.999C90.8785 126.801 91.5 125.347 91.5 123.683H89.5C89.5 124.796 89.1043 125.747 88.2671 126.584L89.6813 127.999ZM91.5 123.683V87.5H89.5V123.683H91.5ZM90.5 88.5H100.866V86.5H90.5V88.5ZM99.8656 87.5V116.345H101.866V87.5H99.8656ZM99.8656 116.345C99.8656 120.885 98.2394 124.783 94.9498 128.088L96.3673 129.498C100.02 125.828 101.866 121.427 101.866 116.345H99.8656ZM94.9498 128.088C91.6799 131.373 87.7846 133 83.2102 133V135C88.3233 135 92.7268 133.156 96.3673 129.498L94.9498 128.088ZM83.2102 133H69.8656V135H83.2102V133ZM70.8656 134V132.353H68.8656V134H70.8656ZM69.3818 131.478C67.5799 132.474 65.3108 133 62.5273 133V135C65.5564 135 68.1795 134.428 70.3495 133.228L69.3818 131.478ZM62.5273 133H49.1828V135H62.5273V133ZM50.1828 134V87.5H48.1828V134H50.1828Z" fill="white" mask="url(#path-7-outside-4_1244_16808)"/>
</svg>
