<svg width="302" height="303" viewBox="0 0 302 303" fill="none" xmlns="http://www.w3.org/2000/svg">
<rect x="0.5" y="0.5" width="300.539" height="301.109" rx="29.5" fill="white"/>
<rect x="0.5" y="0.5" width="300.539" height="301.109" rx="29.5" stroke="#107569"/>
<ellipse cx="150.768" cy="151.054" rx="114.76" ry="115.14" fill="#107569"/>
<path fill-rule="evenodd" clip-rule="evenodd" d="M172.59 38.0099L152.187 148.87L213.429 54.5926L214.266 55.1399L151.829 151.257L151.941 151.82L246.036 86.8444L246.601 87.669L152.734 152.489L262.385 129.664L262.587 130.643L152.805 153.495L263.253 173.957L263.072 174.94L152.808 154.513L247.291 215.458L246.751 216.3L153.689 156.271L215.691 246.654L214.868 247.222L152.977 157.001L174.319 263.748L173.338 263.945L151.538 154.903L151.514 154.868L151.129 154.62L130.914 264.462L129.93 264.28L150.18 154.252L149.642 154.624L88.944 248.062L88.107 247.515L147.479 156.117L57.5346 218.228L56.9689 217.403L148.097 154.475L37.8528 177.423L37.6503 176.444L147.623 153.552L37.3676 133.126L37.5486 132.143L148.008 152.606L53.6887 91.7666L54.2283 90.9247L149.787 152.564L149.858 152.455L84.7401 57.5294L85.563 56.9611L150.448 151.547L150.768 151.054L128.198 38.1625L129.178 37.9652L151.257 148.398L171.606 37.8277L172.59 38.0099Z" fill="white"/>
<mask id="path-4-inside-1_1244_16762" fill="white">
<path fill-rule="evenodd" clip-rule="evenodd" d="M221.235 118.734C221.235 134.632 208.828 147.67 193.048 148.933V200.039V200.544H193.02C192.206 207.84 173.826 213.674 151.272 213.674C128.717 213.674 110.337 207.84 109.523 200.544H109.495V200.039V148.998C93.2393 148.221 80.3015 134.968 80.3015 118.734C80.3015 101.999 94.0479 88.4336 111.005 88.4336C118.708 88.4336 125.748 91.2329 131.138 95.8568C136.528 91.2329 143.569 88.4336 151.272 88.4336C158.737 88.4336 165.58 91.0629 170.902 95.4343C176.223 91.0629 183.066 88.4336 190.532 88.4336C207.489 88.4336 221.235 101.999 221.235 118.734Z"/>
</mask>
<path fill-rule="evenodd" clip-rule="evenodd" d="M221.235 118.734C221.235 134.632 208.828 147.67 193.048 148.933V200.039V200.544H193.02C192.206 207.84 173.826 213.674 151.272 213.674C128.717 213.674 110.337 207.84 109.523 200.544H109.495V200.039V148.998C93.2393 148.221 80.3015 134.968 80.3015 118.734C80.3015 101.999 94.0479 88.4336 111.005 88.4336C118.708 88.4336 125.748 91.2329 131.138 95.8568C136.528 91.2329 143.569 88.4336 151.272 88.4336C158.737 88.4336 165.58 91.0629 170.902 95.4343C176.223 91.0629 183.066 88.4336 190.532 88.4336C207.489 88.4336 221.235 101.999 221.235 118.734Z" fill="white"/>
<path d="M193.048 148.933L192.729 144.946L189.048 145.241V148.933H193.048ZM193.048 200.544V204.544H197.048V200.544H193.048ZM193.02 200.544V196.544H189.441L189.045 200.1L193.02 200.544ZM109.523 200.544L113.498 200.1L113.102 196.544H109.523V200.544ZM109.495 200.544H105.495V204.544H109.495V200.544ZM109.495 148.998H113.495V145.184L109.686 145.002L109.495 148.998ZM131.138 95.8568L128.534 98.8928L131.138 101.127L133.743 98.8928L131.138 95.8568ZM170.902 95.4343L168.363 98.5252L170.902 100.611L173.44 98.5252L170.902 95.4343ZM193.367 152.921C211.165 151.496 225.235 136.778 225.235 118.734H217.235C217.235 132.485 206.491 143.844 192.729 144.946L193.367 152.921ZM197.048 200.039V148.933H189.048V200.039H197.048ZM197.048 200.544V200.039H189.048V200.544H197.048ZM193.02 204.544H193.048V196.544H193.02V204.544ZM189.045 200.1C189.024 200.286 188.787 201.135 186.992 202.424C185.272 203.659 182.63 204.915 179.095 206.03C172.06 208.249 162.249 209.674 151.272 209.674V217.674C162.849 217.674 173.505 216.182 181.502 213.66C185.483 212.404 188.998 210.833 191.659 208.922C194.243 207.066 196.609 204.45 196.995 200.987L189.045 200.1ZM151.272 209.674C140.294 209.674 130.483 208.249 123.448 206.03C119.913 204.915 117.271 203.659 115.551 202.424C113.756 201.135 113.519 200.286 113.498 200.1L105.548 200.987C105.934 204.45 108.3 207.066 110.884 208.922C113.545 210.833 117.06 212.404 121.041 213.66C129.038 216.182 139.694 217.674 151.272 217.674V209.674ZM109.495 204.544H109.523V196.544H109.495V204.544ZM105.495 200.039V200.544H113.495V200.039H105.495ZM105.495 148.998V200.039H113.495V148.998H105.495ZM76.3015 118.734C76.3015 137.16 90.9728 152.117 109.304 152.993L109.686 145.002C95.5058 144.324 84.3015 132.777 84.3015 118.734H76.3015ZM111.005 84.4336C91.8888 84.4336 76.3015 99.7405 76.3015 118.734H84.3015C84.3015 104.258 96.207 92.4336 111.005 92.4336V84.4336ZM133.743 92.8209C127.65 87.5946 119.693 84.4336 111.005 84.4336V92.4336C117.722 92.4336 123.846 94.8711 128.534 98.8928L133.743 92.8209ZM151.272 84.4336C142.583 84.4336 134.626 87.5946 128.534 92.8209L133.743 98.8928C138.431 94.8711 144.554 92.4336 151.272 92.4336V84.4336ZM173.44 92.3434C167.425 87.4025 159.691 84.4336 151.272 84.4336V92.4336C157.782 92.4336 163.734 94.7233 168.363 98.5252L173.44 92.3434ZM190.532 84.4336C182.112 84.4336 174.378 87.4025 168.363 92.3434L173.44 98.5252C178.069 94.7233 184.021 92.4336 190.532 92.4336V84.4336ZM225.235 118.734C225.235 99.7405 209.648 84.4336 190.532 84.4336V92.4336C205.329 92.4336 217.235 104.258 217.235 118.734H225.235Z" fill="#107569" mask="url(#path-4-inside-1_1244_16762)"/>
<path d="M275.805 151.251C275.805 220.436 219.906 276.511 150.965 276.511C82.0238 276.511 26.1248 220.436 26.1248 151.251C26.1248 82.0653 82.0238 25.9907 150.965 25.9907C219.906 25.9907 275.805 82.0653 275.805 151.251Z" stroke="#107569" stroke-width="4"/>
<mask id="path-7-outside-2_1244_16762" maskUnits="userSpaceOnUse" x="82" y="91" width="57" height="56" fill="black">
<rect fill="white" x="82" y="91" width="57" height="56"/>
<path d="M83.2168 118.736C83.2168 115.04 83.9141 111.598 85.3086 108.41C86.7031 105.201 88.7174 102.423 91.3516 100.076C94.0078 97.7077 97.2396 95.8483 101.047 94.498C104.876 93.1478 109.204 92.4727 114.029 92.4727C118.257 92.4727 122.131 92.9043 125.65 93.7676C129.192 94.6087 132.479 95.9036 135.512 97.6523L130.664 105.621C129.757 105.023 128.705 104.492 127.51 104.027C126.337 103.562 125.075 103.175 123.725 102.865C122.396 102.533 121.013 102.279 119.574 102.102C118.158 101.924 116.752 101.836 115.357 101.836C111.993 101.836 108.993 102.257 106.359 103.098C103.725 103.917 101.501 105.079 99.6855 106.584C97.8926 108.067 96.5202 109.849 95.5684 111.93C94.6387 113.988 94.1738 116.257 94.1738 118.736C94.1738 121.304 94.6608 123.661 95.6348 125.809C96.6087 127.956 98.0143 129.815 99.8516 131.387C101.711 132.936 103.969 134.154 106.625 135.039C109.303 135.902 112.325 136.334 115.689 136.334C117.217 136.334 118.733 136.223 120.238 136.002C121.743 135.781 123.193 135.482 124.588 135.105C126.005 134.707 127.366 134.242 128.672 133.711C129.978 133.158 131.195 132.56 132.324 131.918L137.172 139.887C134.339 141.702 131.062 143.13 127.344 144.17C123.625 145.188 119.674 145.697 115.49 145.697C110.156 145.697 105.474 145.011 101.445 143.639C97.4167 142.244 94.0521 140.34 91.3516 137.928C88.651 135.493 86.6146 132.637 85.2422 129.361C83.8919 126.063 83.2168 122.521 83.2168 118.736Z"/>
</mask>
<path d="M83.2168 118.736C83.2168 115.04 83.9141 111.598 85.3086 108.41C86.7031 105.201 88.7174 102.423 91.3516 100.076C94.0078 97.7077 97.2396 95.8483 101.047 94.498C104.876 93.1478 109.204 92.4727 114.029 92.4727C118.257 92.4727 122.131 92.9043 125.65 93.7676C129.192 94.6087 132.479 95.9036 135.512 97.6523L130.664 105.621C129.757 105.023 128.705 104.492 127.51 104.027C126.337 103.562 125.075 103.175 123.725 102.865C122.396 102.533 121.013 102.279 119.574 102.102C118.158 101.924 116.752 101.836 115.357 101.836C111.993 101.836 108.993 102.257 106.359 103.098C103.725 103.917 101.501 105.079 99.6855 106.584C97.8926 108.067 96.5202 109.849 95.5684 111.93C94.6387 113.988 94.1738 116.257 94.1738 118.736C94.1738 121.304 94.6608 123.661 95.6348 125.809C96.6087 127.956 98.0143 129.815 99.8516 131.387C101.711 132.936 103.969 134.154 106.625 135.039C109.303 135.902 112.325 136.334 115.689 136.334C117.217 136.334 118.733 136.223 120.238 136.002C121.743 135.781 123.193 135.482 124.588 135.105C126.005 134.707 127.366 134.242 128.672 133.711C129.978 133.158 131.195 132.56 132.324 131.918L137.172 139.887C134.339 141.702 131.062 143.13 127.344 144.17C123.625 145.188 119.674 145.697 115.49 145.697C110.156 145.697 105.474 145.011 101.445 143.639C97.4167 142.244 94.0521 140.34 91.3516 137.928C88.651 135.493 86.6146 132.637 85.2422 129.361C83.8919 126.063 83.2168 122.521 83.2168 118.736Z" fill="#107569"/>
<path d="M85.3086 108.41L86.2248 108.811L86.2258 108.809L85.3086 108.41ZM91.3516 100.076L92.0167 100.823L92.0171 100.823L91.3516 100.076ZM101.047 94.498L100.714 93.555L100.713 93.5556L101.047 94.498ZM125.65 93.7676L125.412 94.7388L125.419 94.7405L125.65 93.7676ZM135.512 97.6523L136.366 98.1721L136.898 97.2975L136.011 96.7861L135.512 97.6523ZM130.664 105.621L130.114 106.456L130.98 107.026L131.518 106.141L130.664 105.621ZM127.51 104.027L127.141 104.957L127.147 104.959L127.51 104.027ZM123.725 102.865L123.482 103.835L123.491 103.838L123.501 103.84L123.725 102.865ZM119.574 102.102L119.45 103.094L119.452 103.094L119.574 102.102ZM106.359 103.098L106.656 104.053L106.664 104.05L106.359 103.098ZM99.6855 106.584L100.323 107.355L100.324 107.354L99.6855 106.584ZM95.5684 111.93L94.659 111.514L94.657 111.518L95.5684 111.93ZM95.6348 125.809L94.7241 126.222L95.6348 125.809ZM99.8516 131.387L99.2015 132.147L99.2114 132.155L99.8516 131.387ZM106.625 135.039L106.309 135.988L106.318 135.991L106.625 135.039ZM124.588 135.105L124.848 136.071L124.859 136.068L124.588 135.105ZM128.672 133.711L129.049 134.637L129.055 134.635L129.062 134.632L128.672 133.711ZM132.324 131.918L133.179 131.398L132.674 130.569L131.83 131.049L132.324 131.918ZM137.172 139.887L137.711 140.729L138.534 140.202L138.026 139.367L137.172 139.887ZM127.344 144.17L127.608 145.134L127.613 145.133L127.344 144.17ZM101.445 143.639L101.118 144.584L101.123 144.585L101.445 143.639ZM91.3516 137.928L90.6819 138.67L90.6853 138.673L91.3516 137.928ZM85.2422 129.361L84.3167 129.74L84.3198 129.748L85.2422 129.361ZM84.2168 118.736C84.2168 115.169 84.8889 111.864 86.2248 108.811L84.3924 108.009C82.9392 111.331 82.2168 114.911 82.2168 118.736H84.2168ZM86.2258 108.809C87.562 105.733 89.49 103.074 92.0167 100.823L90.6864 99.3295C87.9449 101.771 85.8442 104.668 84.3914 108.012L86.2258 108.809ZM92.0171 100.823C94.5645 98.5511 97.6795 96.7533 101.381 95.4405L100.713 93.5556C96.7996 94.9433 93.4512 96.8642 90.686 99.3298L92.0171 100.823ZM101.379 95.4411C105.084 94.1349 109.296 93.4727 114.029 93.4727V91.4727C109.111 91.4727 104.669 92.1607 100.714 93.555L101.379 95.4411ZM114.029 93.4727C118.19 93.4727 121.982 93.8975 125.412 94.7388L125.889 92.7964C122.279 91.9111 118.324 91.4727 114.029 91.4727V93.4727ZM125.419 94.7405C128.871 95.5602 132.067 96.8202 135.012 98.5186L136.011 96.7861C132.892 94.9871 129.514 93.6573 125.881 92.7946L125.419 94.7405ZM134.657 97.1326L129.81 105.101L131.518 106.141L136.366 98.1721L134.657 97.1326ZM131.214 104.786C130.238 104.143 129.122 103.581 127.872 103.095L127.147 104.959C128.288 105.403 129.275 105.904 130.114 106.456L131.214 104.786ZM127.878 103.098C126.654 102.612 125.343 102.211 123.948 101.891L123.501 103.84C124.807 104.14 126.02 104.513 127.141 104.957L127.878 103.098ZM123.967 101.895C122.597 101.553 121.173 101.291 119.696 101.109L119.452 103.094C120.853 103.266 122.196 103.514 123.482 103.835L123.967 101.895ZM119.698 101.109C118.241 100.927 116.794 100.836 115.357 100.836V102.836C116.71 102.836 118.074 102.922 119.45 103.094L119.698 101.109ZM115.357 100.836C111.911 100.836 108.806 101.267 106.055 102.145L106.664 104.05C109.181 103.246 112.075 102.836 115.357 102.836V100.836ZM106.062 102.143C103.324 102.994 100.979 104.213 99.0472 105.814L100.324 107.354C102.023 105.945 104.126 104.839 106.656 104.053L106.062 102.143ZM99.0482 105.813C97.141 107.391 95.6747 109.293 94.659 111.514L96.4777 112.346C97.3657 110.405 98.6442 108.743 100.323 107.355L99.0482 105.813ZM94.657 111.518C93.6634 113.718 93.1738 116.129 93.1738 118.736H95.1738C95.1738 116.385 95.614 114.258 96.4797 112.341L94.657 111.518ZM93.1738 118.736C93.1738 121.434 93.6862 123.934 94.7241 126.222L96.5455 125.395C95.6354 123.389 95.1738 121.174 95.1738 118.736H93.1738ZM94.7241 126.222C95.7601 128.506 97.256 130.482 99.2015 132.147L100.502 130.627C98.7727 129.148 97.4574 127.406 96.5455 125.395L94.7241 126.222ZM99.2114 132.155C101.18 133.796 103.553 135.069 106.309 135.988L106.941 134.09C104.385 133.238 102.242 132.077 100.492 130.618L99.2114 132.155ZM106.318 135.991C109.113 136.892 112.24 137.334 115.689 137.334V135.334C112.409 135.334 109.494 134.913 106.932 134.087L106.318 135.991ZM115.689 137.334C117.265 137.334 118.83 137.22 120.384 136.991L120.093 135.013C118.636 135.227 117.168 135.334 115.689 135.334V137.334ZM120.384 136.991C121.926 136.765 123.414 136.458 124.848 136.071L124.327 134.14C122.973 134.506 121.561 134.797 120.093 135.013L120.384 136.991ZM124.859 136.068C126.31 135.66 127.707 135.183 129.049 134.637L128.295 132.785C127.025 133.301 125.699 133.754 124.317 134.143L124.859 136.068ZM129.062 134.632C130.4 134.065 131.653 133.45 132.819 132.787L131.83 131.049C130.738 131.67 129.555 132.251 128.282 132.79L129.062 134.632ZM131.47 132.438L136.318 140.406L138.026 139.367L133.179 131.398L131.47 132.438ZM136.632 139.045C133.894 140.799 130.711 142.189 127.074 143.207L127.613 145.133C131.414 144.07 134.783 142.605 137.711 140.729L136.632 139.045ZM127.08 143.205C123.454 144.198 119.592 144.697 115.49 144.697V146.697C119.756 146.697 123.796 146.178 127.608 145.134L127.08 143.205ZM115.49 144.697C110.239 144.697 105.67 144.021 101.768 142.692L101.123 144.585C105.278 146.001 110.073 146.697 115.49 146.697V144.697ZM101.772 142.694C97.8471 141.335 94.6037 139.492 92.0178 137.182L90.6853 138.673C93.5004 141.189 96.9863 143.153 101.118 144.584L101.772 142.694ZM92.0212 137.185C89.4275 134.846 87.4786 132.112 86.1645 128.975L84.3198 129.748C85.7506 133.163 87.8746 136.139 90.6819 138.67L92.0212 137.185ZM86.1676 128.982C84.8696 125.812 84.2168 122.4 84.2168 118.736H82.2168C82.2168 122.643 82.9142 126.314 84.3167 129.74L86.1676 128.982Z" fill="white" mask="url(#path-7-outside-2_1244_16762)"/>
<mask id="path-9-outside-3_1244_16762" maskUnits="userSpaceOnUse" x="128" y="119" width="47" height="40" fill="black">
<rect fill="white" x="128" y="119" width="47" height="40"/>
<path d="M129.451 139.139C129.451 136.576 129.966 134.174 130.995 131.934C132.045 129.693 133.528 127.736 135.445 126.061C137.383 124.385 139.714 123.063 142.438 122.095C145.183 121.126 148.261 120.642 151.672 120.642C155.083 120.642 158.15 121.126 160.875 122.095C163.62 123.063 165.951 124.385 167.868 126.061C169.806 127.736 171.289 129.693 172.318 131.934C173.368 134.174 173.893 136.576 173.893 139.139C173.893 141.702 173.368 144.104 172.318 146.344C171.289 148.584 169.806 150.542 167.868 152.217C165.951 153.892 163.62 155.214 160.875 156.183C158.15 157.151 155.083 157.636 151.672 157.636C148.261 157.636 145.183 157.151 142.438 156.183C139.714 155.214 137.383 153.892 135.445 152.217C133.528 150.542 132.045 148.584 130.995 146.344C129.966 144.104 129.451 141.702 129.451 139.139ZM138.866 139.139C138.866 140.572 139.149 141.934 139.714 143.226C140.299 144.497 141.137 145.627 142.227 146.616C143.337 147.585 144.679 148.362 146.253 148.947C147.847 149.512 149.654 149.795 151.672 149.795C153.69 149.795 155.486 149.512 157.061 148.947C158.655 148.362 159.997 147.585 161.087 146.616C162.197 145.627 163.035 144.497 163.6 143.226C164.185 141.934 164.478 140.572 164.478 139.139C164.478 137.706 164.185 136.343 163.6 135.052C163.035 133.76 162.197 132.63 161.087 131.661C159.997 130.672 158.655 129.895 157.061 129.33C155.486 128.745 153.69 128.452 151.672 128.452C149.654 128.452 147.847 128.745 146.253 129.33C144.679 129.895 143.337 130.672 142.227 131.661C141.137 132.63 140.299 133.76 139.714 135.052C139.149 136.343 138.866 137.706 138.866 139.139Z"/>
</mask>
<path d="M129.451 139.139C129.451 136.576 129.966 134.174 130.995 131.934C132.045 129.693 133.528 127.736 135.445 126.061C137.383 124.385 139.714 123.063 142.438 122.095C145.183 121.126 148.261 120.642 151.672 120.642C155.083 120.642 158.15 121.126 160.875 122.095C163.62 123.063 165.951 124.385 167.868 126.061C169.806 127.736 171.289 129.693 172.318 131.934C173.368 134.174 173.893 136.576 173.893 139.139C173.893 141.702 173.368 144.104 172.318 146.344C171.289 148.584 169.806 150.542 167.868 152.217C165.951 153.892 163.62 155.214 160.875 156.183C158.15 157.151 155.083 157.636 151.672 157.636C148.261 157.636 145.183 157.151 142.438 156.183C139.714 155.214 137.383 153.892 135.445 152.217C133.528 150.542 132.045 148.584 130.995 146.344C129.966 144.104 129.451 141.702 129.451 139.139ZM138.866 139.139C138.866 140.572 139.149 141.934 139.714 143.226C140.299 144.497 141.137 145.627 142.227 146.616C143.337 147.585 144.679 148.362 146.253 148.947C147.847 149.512 149.654 149.795 151.672 149.795C153.69 149.795 155.486 149.512 157.061 148.947C158.655 148.362 159.997 147.585 161.087 146.616C162.197 145.627 163.035 144.497 163.6 143.226C164.185 141.934 164.478 140.572 164.478 139.139C164.478 137.706 164.185 136.343 163.6 135.052C163.035 133.76 162.197 132.63 161.087 131.661C159.997 130.672 158.655 129.895 157.061 129.33C155.486 128.745 153.69 128.452 151.672 128.452C149.654 128.452 147.847 128.745 146.253 129.33C144.679 129.895 143.337 130.672 142.227 131.661C141.137 132.63 140.299 133.76 139.714 135.052C139.149 136.343 138.866 137.706 138.866 139.139Z" fill="#107569"/>
<path d="M130.995 131.934L130.09 131.509L130.086 131.516L130.995 131.934ZM135.445 126.061L134.791 125.304L134.787 125.307L135.445 126.061ZM142.438 122.095L142.106 121.152L142.103 121.153L142.438 122.095ZM160.875 122.095L160.54 123.037L160.542 123.038L160.875 122.095ZM167.868 126.061L167.21 126.814L167.214 126.817L167.868 126.061ZM172.318 131.934L171.41 132.351L171.413 132.358L172.318 131.934ZM172.318 146.344L171.413 145.92L171.41 145.926L172.318 146.344ZM167.868 152.217L167.214 151.46L167.21 151.464L167.868 152.217ZM160.875 156.183L160.542 155.24L160.54 155.24L160.875 156.183ZM142.438 156.183L142.103 157.125L142.106 157.126L142.438 156.183ZM135.445 152.217L134.787 152.97L134.791 152.973L135.445 152.217ZM130.995 146.344L130.086 146.761L130.09 146.768L130.995 146.344ZM139.714 143.226L138.798 143.626L138.802 143.635L138.805 143.644L139.714 143.226ZM142.227 146.616L141.555 147.357L141.562 147.363L141.569 147.37L142.227 146.616ZM146.253 148.947L145.904 149.885L145.912 149.887L145.919 149.89L146.253 148.947ZM157.061 148.947L157.398 149.888L157.405 149.886L157.061 148.947ZM161.087 146.616L161.751 147.364L161.752 147.363L161.087 146.616ZM163.6 143.226L162.689 142.813L162.686 142.819L163.6 143.226ZM163.6 135.052L162.683 135.453L162.689 135.464L163.6 135.052ZM161.087 131.661L160.415 132.402L160.422 132.408L160.429 132.415L161.087 131.661ZM157.061 129.33L156.712 130.267L156.719 130.27L156.726 130.273L157.061 129.33ZM146.253 129.33L146.591 130.271L146.598 130.269L146.253 129.33ZM142.227 131.661L142.891 132.409L142.892 132.408L142.227 131.661ZM139.714 135.052L138.803 134.639L138.798 134.651L139.714 135.052ZM130.451 139.139C130.451 136.714 130.937 134.455 131.904 132.351L130.086 131.516C128.995 133.893 128.451 136.437 128.451 139.139H130.451ZM131.901 132.358C132.89 130.247 134.287 128.4 136.103 126.814L134.787 125.307C132.769 127.071 131.2 129.14 130.09 131.509L131.901 132.358ZM136.099 126.817C137.932 125.233 140.151 123.969 142.773 123.037L142.103 121.153C139.277 122.158 136.834 123.538 134.791 125.304L136.099 126.817ZM142.771 123.038C145.393 122.113 148.355 121.642 151.672 121.642V119.642C148.167 119.642 144.974 120.139 142.106 121.152L142.771 123.038ZM151.672 121.642C154.989 121.642 157.94 122.113 160.54 123.037L161.21 121.153C158.36 120.139 155.177 119.642 151.672 119.642V121.642ZM160.542 123.038C163.184 123.97 165.401 125.233 167.21 126.814L168.526 125.307C166.501 123.538 164.055 122.157 161.208 121.152L160.542 123.038ZM167.214 126.817C169.048 128.402 170.442 130.246 171.41 132.351L173.227 131.516C172.136 129.141 170.564 127.069 168.522 125.304L167.214 126.817ZM171.413 132.358C172.398 134.46 172.893 136.717 172.893 139.139H174.893C174.893 136.434 174.338 133.887 173.224 131.509L171.413 132.358ZM172.893 139.139C172.893 141.561 172.398 143.817 171.413 145.92L173.224 146.768C174.338 144.39 174.893 141.843 174.893 139.139H172.893ZM171.41 145.926C170.442 148.032 169.048 149.875 167.214 151.46L168.522 152.973C170.564 151.208 172.136 149.136 173.227 146.761L171.41 145.926ZM167.21 151.464C165.401 153.044 163.184 154.307 160.542 155.24L161.208 157.126C164.055 156.121 166.501 154.739 168.526 152.97L167.21 151.464ZM160.54 155.24C157.94 156.165 154.989 156.636 151.672 156.636V158.636C155.177 158.636 158.36 158.138 161.21 157.125L160.54 155.24ZM151.672 156.636C148.355 156.636 145.393 156.165 142.771 155.24L142.106 157.126C144.974 158.138 148.167 158.636 151.672 158.636V156.636ZM142.773 155.24C140.151 154.308 137.932 153.044 136.099 151.46L134.791 152.973C136.834 154.739 139.277 156.12 142.103 157.125L142.773 155.24ZM136.103 151.464C134.287 149.877 132.89 148.03 131.901 145.92L130.09 146.768C131.2 149.138 132.769 151.206 134.787 152.97L136.103 151.464ZM131.904 145.926C130.937 143.822 130.451 141.564 130.451 139.139H128.451C128.451 141.84 128.995 144.385 130.086 146.761L131.904 145.926ZM137.866 139.139C137.866 140.707 138.176 142.206 138.798 143.626L140.63 142.825C140.121 141.662 139.866 140.436 139.866 139.139H137.866ZM138.805 143.644C139.45 145.044 140.37 146.282 141.555 147.357L142.899 145.876C141.903 144.972 141.148 143.95 140.622 142.807L138.805 143.644ZM141.569 147.37C142.782 148.428 144.233 149.263 145.904 149.885L146.601 148.01C145.125 147.461 143.891 146.742 142.884 145.863L141.569 147.37ZM145.919 149.89C147.639 150.499 149.561 150.795 151.672 150.795V148.795C149.746 148.795 148.056 148.525 146.587 148.005L145.919 149.89ZM151.672 150.795C153.782 150.795 155.696 150.5 157.398 149.888L156.723 148.006C155.277 148.525 153.598 148.795 151.672 148.795V150.795ZM157.405 149.886C159.098 149.265 160.554 148.428 161.751 147.364L160.423 145.869C159.44 146.742 158.212 147.459 156.716 148.009L157.405 149.886ZM161.752 147.363C162.961 146.286 163.887 145.042 164.513 143.632L162.686 142.819C162.182 143.952 161.433 144.969 160.422 145.87L161.752 147.363ZM164.51 143.638C165.155 142.216 165.478 140.712 165.478 139.139H163.478C163.478 140.431 163.215 141.652 162.689 142.813L164.51 143.638ZM165.478 139.139C165.478 137.565 165.155 136.062 164.51 134.639L162.689 135.464C163.215 136.625 163.478 137.847 163.478 139.139H165.478ZM164.516 134.651C163.889 133.218 162.961 131.969 161.744 130.908L160.429 132.415C161.433 133.291 162.18 134.302 162.683 135.453L164.516 134.651ZM161.759 130.921C160.557 129.83 159.095 128.99 157.395 128.388L156.726 130.273C158.214 130.8 159.437 131.514 160.415 132.402L161.759 130.921ZM157.409 128.393C155.703 127.759 153.786 127.452 151.672 127.452V129.452C153.594 129.452 155.269 129.731 156.712 130.267L157.409 128.393ZM151.672 127.452C149.558 127.452 147.632 127.759 145.908 128.391L146.598 130.269C148.063 129.731 149.75 129.452 151.672 129.452V127.452ZM145.915 128.389C144.235 128.992 142.778 129.83 141.561 130.914L142.892 132.408C143.895 131.514 145.122 130.798 146.591 130.271L145.915 128.389ZM141.562 130.914C140.371 131.973 139.448 133.216 138.803 134.639L140.625 135.464C141.151 134.304 141.903 133.287 142.891 132.409L141.562 130.914ZM138.798 134.651C138.176 136.071 137.866 137.57 137.866 139.139H139.866C139.866 137.841 140.121 136.616 140.63 135.453L138.798 134.651Z" fill="white" mask="url(#path-9-outside-3_1244_16762)"/>
<mask id="path-11-outside-4_1244_16762" maskUnits="userSpaceOnUse" x="125" y="162" width="54" height="49" fill="black">
<rect fill="white" x="125" y="162" width="54" height="49"/>
<path d="M126.183 163.5H136.5V204.817H141.683C143.12 204.817 144.339 204.309 145.34 203.291C146.357 202.274 146.866 201.071 146.866 199.683V163.5H157.183V204.817H162.366C163.77 204.817 164.973 204.309 165.974 203.291C166.991 202.274 167.5 201.071 167.5 199.683V163.5H177.866V192.345C177.866 197.156 176.13 201.305 172.659 204.793C169.203 208.264 165.054 210 160.21 210H146.866V208.353C144.88 209.451 142.434 210 139.527 210H126.183V163.5Z"/>
</mask>
<path d="M126.183 163.5H136.5V204.817H141.683C143.12 204.817 144.339 204.309 145.34 203.291C146.357 202.274 146.866 201.071 146.866 199.683V163.5H157.183V204.817H162.366C163.77 204.817 164.973 204.309 165.974 203.291C166.991 202.274 167.5 201.071 167.5 199.683V163.5H177.866V192.345C177.866 197.156 176.13 201.305 172.659 204.793C169.203 208.264 165.054 210 160.21 210H146.866V208.353C144.88 209.451 142.434 210 139.527 210H126.183V163.5Z" fill="#107569"/>
<path d="M126.183 163.5V162.5H125.183V163.5H126.183ZM136.5 163.5H137.5V162.5H136.5V163.5ZM136.5 204.817H135.5V205.817H136.5V204.817ZM145.34 203.291L144.633 202.584L144.627 202.59L145.34 203.291ZM146.866 163.5V162.5H145.866V163.5H146.866ZM157.183 163.5H158.183V162.5H157.183V163.5ZM157.183 204.817H156.183V205.817H157.183V204.817ZM165.974 203.291L165.267 202.584L165.261 202.59L165.974 203.291ZM167.5 163.5V162.5H166.5V163.5H167.5ZM177.866 163.5H178.866V162.5H177.866V163.5ZM172.659 204.793L171.95 204.088L171.95 204.088L172.659 204.793ZM146.866 210H145.866V211H146.866V210ZM146.866 208.353H147.866V206.658L146.382 207.478L146.866 208.353ZM126.183 210H125.183V211H126.183V210ZM126.183 164.5H136.5V162.5H126.183V164.5ZM135.5 163.5V204.817H137.5V163.5H135.5ZM136.5 205.817H141.683V203.817H136.5V205.817ZM141.683 205.817C143.386 205.817 144.862 205.203 146.053 203.993L144.627 202.59C143.815 203.415 142.854 203.817 141.683 203.817V205.817ZM146.047 203.999C147.244 202.801 147.866 201.347 147.866 199.683H145.866C145.866 200.796 145.47 201.747 144.633 202.584L146.047 203.999ZM147.866 199.683V163.5H145.866V199.683H147.866ZM146.866 164.5H157.183V162.5H146.866V164.5ZM156.183 163.5V204.817H158.183V163.5H156.183ZM157.183 205.817H162.366V203.817H157.183V205.817ZM162.366 205.817C164.043 205.817 165.501 205.198 166.687 203.993L165.261 202.59C164.445 203.42 163.498 203.817 162.366 203.817V205.817ZM166.681 203.999C167.879 202.801 168.5 201.347 168.5 199.683H166.5C166.5 200.796 166.104 201.747 165.267 202.584L166.681 203.999ZM168.5 199.683V163.5H166.5V199.683H168.5ZM167.5 164.5H177.866V162.5H167.5V164.5ZM176.866 163.5V192.345H178.866V163.5H176.866ZM176.866 192.345C176.866 196.885 175.239 200.783 171.95 204.088L173.367 205.498C177.02 201.828 178.866 197.427 178.866 192.345H176.866ZM171.95 204.088C168.68 207.373 164.785 209 160.21 209V211C165.323 211 169.727 209.156 173.367 205.498L171.95 204.088ZM160.21 209H146.866V211H160.21V209ZM147.866 210V208.353H145.866V210H147.866ZM146.382 207.478C144.58 208.474 142.311 209 139.527 209V211C142.556 211 145.18 210.428 147.349 209.228L146.382 207.478ZM139.527 209H126.183V211H139.527V209ZM127.183 210V163.5H125.183V210H127.183Z" fill="white" mask="url(#path-11-outside-4_1244_16762)"/>
</svg>
