<svg width="254" height="255" viewBox="0 0 254 255" fill="none" xmlns="http://www.w3.org/2000/svg">
<path fill-rule="evenodd" clip-rule="evenodd" d="M249.805 127.251C249.805 195.338 194.795 250.511 126.965 250.511C59.1348 250.511 4.125 195.338 4.125 127.251C4.125 59.1636 59.1348 3.99072 126.965 3.99072C194.795 3.99072 249.805 59.1636 249.805 127.251ZM253.805 127.251C253.805 197.534 197.017 254.511 126.965 254.511C56.9132 254.511 0.125 197.534 0.125 127.251C0.125 56.967 56.9132 -0.00927734 126.965 -0.00927734C197.017 -0.00927734 253.805 56.967 253.805 127.251ZM241.529 127.054C241.529 134.987 240.729 142.733 239.206 150.214L239.253 149.957L128.805 129.495L238.587 106.643L238.385 105.664L128.734 128.489L222.593 63.6747C234.561 81.8531 241.529 103.637 241.529 127.054ZM128.808 130.513L239.056 150.937C236.01 165.429 230.246 178.915 222.326 190.836L128.808 130.513ZM129.689 132.271L221.769 191.667C213.648 203.663 203.328 214.041 191.391 222.217L129.689 132.271ZM128.977 133.001L190.564 222.778C172.321 235.041 150.377 242.194 126.769 242.194C88.3716 242.194 54.3791 223.274 33.5467 194.22L123.479 132.117L64.1073 223.515L64.9442 224.062L125.642 130.624L126.18 130.252L105.931 240.28L106.914 240.462L127.129 130.62L127.514 130.868L127.538 130.903L149.339 239.945L150.319 239.748L128.977 133.001ZM32.9691 193.403L33.0606 193.536C24.6143 181.574 18.3863 167.924 14.9777 153.189L124.097 130.475L32.9691 193.403ZM12.0085 127.054C12.0085 135.696 12.9575 144.115 14.7566 152.214L123.624 129.552L13.3907 109.131C12.4808 114.971 12.0085 120.957 12.0085 127.054ZM124.008 128.606L13.5489 108.143C22.5399 53.5499 69.8079 11.9137 126.769 11.9137C166.588 11.9137 201.671 32.2614 222.251 63.1589L222.036 62.8444L127.942 127.82L127.829 127.257L190.267 31.1399L189.43 30.5926L128.187 124.87L148.59 14.0099L147.607 13.8277L127.257 124.398L105.179 13.9652L104.198 14.1625L126.769 127.054L126.448 127.547L61.5632 32.9611L60.7403 33.5294L125.858 128.455L125.787 128.564L30.2285 66.9247L29.689 67.7666L124.008 128.606Z" fill="#107569"/>
</svg>
